<?xml version="1.0" encoding="UTF-8"?>
<svg width="700pt" height="700pt" version="1.1" viewBox="0 0 700 700" xmlns="http://www.w3.org/2000/svg" xmlns:xlink="http://www.w3.org/1999/xlink">
 <defs>
  <symbol id="v" overflow="visible">
   <path d="m18.766-1.125c-0.96875 0.5-1.9805 0.875-3.0312 1.125-1.043 0.25781-2.1367 0.39062-3.2812 0.39062-3.3984 0-6.0898-0.94531-8.0781-2.8438-1.9922-1.9062-2.9844-4.4844-2.9844-7.7344 0-3.2578 0.99219-5.8359 2.9844-7.7344 1.9883-1.9062 4.6797-2.8594 8.0781-2.8594 1.1445 0 2.2383 0.13281 3.2812 0.39062 1.0508 0.25 2.0625 0.625 3.0312 1.125v4.2188c-0.98047-0.65625-1.9453-1.1406-2.8906-1.4531-0.94922-0.3125-1.9492-0.46875-3-0.46875-1.875 0-3.3516 0.60547-4.4219 1.8125-1.0742 1.1992-1.6094 2.8555-1.6094 4.9688 0 2.1055 0.53516 3.7617 1.6094 4.9688 1.0703 1.1992 2.5469 1.7969 4.4219 1.7969 1.0508 0 2.0508-0.14844 3-0.45312 0.94531-0.3125 1.9102-0.80078 2.8906-1.4688z"/>
  </symbol>
  <symbol id="a" overflow="visible">
   <path d="m13.734-11.141c-0.4375-0.19531-0.87109-0.34375-1.2969-0.4375-0.41797-0.10156-0.83984-0.15625-1.2656-0.15625-1.2617 0-2.2305 0.40625-2.9062 1.2188-0.67969 0.80469-1.0156 1.9531-1.0156 3.4531v7.0625h-4.8906v-15.312h4.8906v2.5156c0.625-1 1.3438-1.7266 2.1562-2.1875 0.82031-0.46875 1.8008-0.70312 2.9375-0.70312 0.16406 0 0.34375 0.011719 0.53125 0.03125 0.19531 0.011719 0.47656 0.039062 0.84375 0.078125z"/>
  </symbol>
  <symbol id="c" overflow="visible">
   <path d="m17.641-7.7031v1.4062h-11.453c0.125 1.1484 0.53906 2.0078 1.25 2.5781 0.70703 0.57422 1.7031 0.85938 2.9844 0.85938 1.0312 0 2.082-0.14844 3.1562-0.45312 1.082-0.3125 2.1914-0.77344 3.3281-1.3906v3.7656c-1.1562 0.4375-2.3125 0.76562-3.4688 0.98438-1.1562 0.22656-2.3125 0.34375-3.4688 0.34375-2.7734 0-4.9297-0.70312-6.4688-2.1094-1.5312-1.4062-2.2969-3.3789-2.2969-5.9219 0-2.5 0.75391-4.4609 2.2656-5.8906 1.5078-1.4375 3.582-2.1562 6.2188-2.1562 2.4062 0 4.332 0.73047 5.7812 2.1875 1.4453 1.4492 2.1719 3.3828 2.1719 5.7969zm-5.0312-1.625c0-0.92578-0.27344-1.6719-0.8125-2.2344-0.54297-0.57031-1.25-0.85938-2.125-0.85938-0.94922 0-1.7188 0.26562-2.3125 0.79688s-0.96484 1.2969-1.1094 2.2969z"/>
  </symbol>
  <symbol id="m" overflow="visible">
   <path d="m9.2188-6.8906c-1.0234 0-1.793 0.17188-2.3125 0.51562-0.51172 0.34375-0.76562 0.85547-0.76562 1.5312 0 0.625 0.20703 1.1172 0.625 1.4688 0.41406 0.34375 0.98828 0.51562 1.7188 0.51562 0.92578 0 1.7031-0.32812 2.3281-0.98438 0.63281-0.66406 0.95312-1.4922 0.95312-2.4844v-0.5625zm7.4688-1.8438v8.7344h-4.9219v-2.2656c-0.65625 0.92969-1.3984 1.6055-2.2188 2.0312-0.82422 0.41406-1.8242 0.625-3 0.625-1.5859 0-2.8711-0.45703-3.8594-1.375-0.99219-0.92578-1.4844-2.1289-1.4844-3.6094 0-1.7891 0.61328-3.1016 1.8438-3.9375 1.2383-0.84375 3.1797-1.2656 5.8281-1.2656h2.8906v-0.39062c0-0.76953-0.30859-1.332-0.92188-1.6875-0.61719-0.36328-1.5703-0.54688-2.8594-0.54688-1.0547 0-2.0312 0.10547-2.9375 0.3125-0.89844 0.21094-1.7305 0.52344-2.5 0.9375v-3.7344c1.0391-0.25 2.0859-0.44141 3.1406-0.57812 1.0625-0.13281 2.125-0.20312 3.1875-0.20312 2.7578 0 4.75 0.54688 5.9688 1.6406 1.2266 1.0859 1.8438 2.8555 1.8438 5.3125z"/>
  </symbol>
  <symbol id="b" overflow="visible">
   <path d="m7.7031-19.656v4.3438h5.0469v3.5h-5.0469v6.5c0 0.71094 0.14062 1.1875 0.42188 1.4375s0.83594 0.375 1.6719 0.375h2.5156v3.5h-4.1875c-1.9375 0-3.3125-0.39844-4.125-1.2031-0.80469-0.8125-1.2031-2.1797-1.2031-4.1094v-6.5h-2.4219v-3.5h2.4219v-4.3438z"/>
  </symbol>
  <symbol id="l" overflow="visible">
   <path d="m12.766-13.078v-8.2031h4.9219v21.281h-4.9219v-2.2188c-0.66797 0.90625-1.4062 1.5703-2.2188 1.9844s-1.7578 0.625-2.8281 0.625c-1.8867 0-3.4336-0.75-4.6406-2.25-1.2109-1.5-1.8125-3.4258-1.8125-5.7812 0-2.3633 0.60156-4.2969 1.8125-5.7969 1.207-1.5 2.7539-2.25 4.6406-2.25 1.0625 0 2 0.21484 2.8125 0.64062 0.82031 0.42969 1.5664 1.0859 2.2344 1.9688zm-3.2188 9.9219c1.0391 0 1.8359-0.37891 2.3906-1.1406 0.55078-0.76953 0.82812-1.8828 0.82812-3.3438 0-1.457-0.27734-2.5664-0.82812-3.3281-0.55469-0.76953-1.3516-1.1562-2.3906-1.1562-1.043 0-1.8398 0.38672-2.3906 1.1562-0.55469 0.76172-0.82812 1.8711-0.82812 3.3281 0 1.4609 0.27344 2.5742 0.82812 3.3438 0.55078 0.76172 1.3477 1.1406 2.3906 1.1406z"/>
  </symbol>
  <symbol id="k" overflow="visible">
   <path d="m10.5-3.1562c1.0508 0 1.8516-0.37891 2.4062-1.1406 0.55078-0.76953 0.82812-1.8828 0.82812-3.3438 0-1.457-0.27734-2.5664-0.82812-3.3281-0.55469-0.76953-1.3555-1.1562-2.4062-1.1562-1.0547 0-1.8594 0.38672-2.4219 1.1562-0.55469 0.77344-0.82812 1.8828-0.82812 3.3281 0 1.4492 0.27344 2.5586 0.82812 3.3281 0.5625 0.77344 1.3672 1.1562 2.4219 1.1562zm-3.25-9.9219c0.67578-0.88281 1.4219-1.5391 2.2344-1.9688 0.82031-0.42578 1.7656-0.64062 2.8281-0.64062 1.8945 0 3.4453 0.75 4.6562 2.25 1.207 1.5 1.8125 3.4336 1.8125 5.7969 0 2.3555-0.60547 4.2812-1.8125 5.7812-1.2109 1.5-2.7617 2.25-4.6562 2.25-1.0625 0-2.0078-0.21094-2.8281-0.625-0.8125-0.42578-1.5586-1.0859-2.2344-1.9844v2.2188h-4.8906v-21.281h4.8906z"/>
  </symbol>
  <symbol id="e" overflow="visible">
   <path d="m0.34375-15.312h4.8906l4.125 10.391 3.5-10.391h4.8906l-6.4375 16.766c-0.64844 1.6953-1.4023 2.8828-2.2656 3.5625-0.86719 0.6875-2 1.0312-3.4062 1.0312h-2.8438v-3.2188h1.5312c0.83203 0 1.4375-0.13672 1.8125-0.40625 0.38281-0.26172 0.67969-0.73047 0.89062-1.4062l0.14062-0.42188z"/>
  </symbol>
  <symbol id="j" overflow="visible">
   <path d="m0.14062-20.406h5.2812l5.4219 15.062 5.4062-15.062h5.2812l-7.5625 20.406h-6.2656z"/>
  </symbol>
  <symbol id="u" overflow="visible">
   <path d="m2.3594-15.312h4.8906v15.312h-4.8906zm0-5.9688h4.8906v4h-4.8906z"/>
  </symbol>
  <symbol id="t" overflow="visible">
   <path d="m2.3594-21.281h4.8906v11.594l5.625-5.625h5.6875l-7.4688 7.0312 8.0625 8.2812h-5.9375l-5.9688-6.3906v6.3906h-4.8906z"/>
  </symbol>
  <symbol id="d" overflow="visible">
   <path d="m9.6406-12.188c-1.0859 0-1.9141 0.39062-2.4844 1.1719-0.57422 0.78125-0.85938 1.9062-0.85938 3.375s0.28516 2.5938 0.85938 3.375c0.57031 0.77344 1.3984 1.1562 2.4844 1.1562 1.0625 0 1.875-0.38281 2.4375-1.1562 0.57031-0.78125 0.85938-1.9062 0.85938-3.375s-0.28906-2.5938-0.85938-3.375c-0.5625-0.78125-1.375-1.1719-2.4375-1.1719zm0-3.5c2.6328 0 4.6914 0.71484 6.1719 2.1406 1.4766 1.418 2.2188 3.3867 2.2188 5.9062 0 2.5117-0.74219 4.4805-2.2188 5.9062-1.4805 1.418-3.5391 2.125-6.1719 2.125-2.6484 0-4.7148-0.70703-6.2031-2.125-1.4922-1.4258-2.2344-3.3945-2.2344-5.9062 0-2.5195 0.74219-4.4883 2.2344-5.9062 1.4883-1.4258 3.5547-2.1406 6.2031-2.1406z"/>
  </symbol>
  <symbol id="s" overflow="visible">
   <path d="m0.14062-20.406h18.812v3.9688h-6.7656v16.438h-5.2656v-16.438h-6.7812z"/>
  </symbol>
  <symbol id="i" overflow="visible">
   <path d="m2.1875-5.9688v-9.3438h4.9219v1.5312c0 0.83594-0.007813 1.875-0.015625 3.125-0.011719 1.25-0.015625 2.0859-0.015625 2.5 0 1.2422 0.03125 2.1328 0.09375 2.6719 0.070313 0.54297 0.17969 0.93359 0.32812 1.1719 0.20703 0.32422 0.47266 0.57422 0.79688 0.75 0.32031 0.16797 0.69141 0.25 1.1094 0.25 1.0195 0 1.8203-0.39062 2.4062-1.1719 0.58203-0.78125 0.875-1.8672 0.875-3.2656v-7.5625h4.8906v15.312h-4.8906v-2.2188c-0.74219 0.89844-1.5234 1.5586-2.3438 1.9844-0.82422 0.41406-1.7344 0.625-2.7344 0.625-1.7617 0-3.1055-0.53906-4.0312-1.625-0.92969-1.082-1.3906-2.6602-1.3906-4.7344z"/>
  </symbol>
  <symbol id="h" overflow="visible">
   <path d="m14.719-14.828v3.9844c-0.65625-0.45703-1.3242-0.79688-2-1.0156-0.66797-0.21875-1.3594-0.32812-2.0781-0.32812-1.3672 0-2.4336 0.40234-3.2031 1.2031-0.76172 0.79297-1.1406 1.9062-1.1406 3.3438 0 1.4297 0.37891 2.543 1.1406 3.3438 0.76953 0.79297 1.8359 1.1875 3.2031 1.1875 0.75781 0 1.4844-0.10938 2.1719-0.32812 0.6875-0.22656 1.3203-0.56641 1.9062-1.0156v4c-0.76172 0.28125-1.5391 0.48828-2.3281 0.625-0.78125 0.14453-1.5742 0.21875-2.375 0.21875-2.7617 0-4.9219-0.70703-6.4844-2.125-1.5547-1.4141-2.3281-3.3828-2.3281-5.9062 0-2.5312 0.77344-4.5039 2.3281-5.9219 1.5625-1.4141 3.7227-2.125 6.4844-2.125 0.80078 0 1.5938 0.074219 2.375 0.21875 0.78125 0.13672 1.5547 0.35156 2.3281 0.64062z"/>
  </symbol>
  <symbol id="g" overflow="visible">
   <path d="m17.75-9.3281v9.3281h-4.9219v-7.1094c0-1.3438-0.03125-2.2656-0.09375-2.7656s-0.16797-0.86719-0.3125-1.1094c-0.1875-0.3125-0.44922-0.55469-0.78125-0.73438-0.32422-0.17578-0.69531-0.26562-1.1094-0.26562-1.0234 0-1.8242 0.39844-2.4062 1.1875-0.58594 0.78125-0.875 1.8711-0.875 3.2656v7.5312h-4.8906v-21.281h4.8906v8.2031c0.73828-0.88281 1.5195-1.5391 2.3438-1.9688 0.83203-0.42578 1.75-0.64062 2.75-0.64062 1.7695 0 3.1133 0.54688 4.0312 1.6406 0.91406 1.0859 1.375 2.6562 1.375 4.7188z"/>
  </symbol>
  <symbol id="f" overflow="visible">
   <path d="m17.75-9.3281v9.3281h-4.9219v-7.1406c0-1.3203-0.03125-2.2344-0.09375-2.7344s-0.16797-0.86719-0.3125-1.1094c-0.1875-0.3125-0.44922-0.55469-0.78125-0.73438-0.32422-0.17578-0.69531-0.26562-1.1094-0.26562-1.0234 0-1.8242 0.39844-2.4062 1.1875-0.58594 0.78125-0.875 1.8711-0.875 3.2656v7.5312h-4.8906v-15.312h4.8906v2.2344c0.73828-0.88281 1.5195-1.5391 2.3438-1.9688 0.83203-0.42578 1.75-0.64062 2.75-0.64062 1.7695 0 3.1133 0.54688 4.0312 1.6406 0.91406 1.0859 1.375 2.6562 1.375 4.7188z"/>
  </symbol>
  <symbol id="r" overflow="visible">
   <path d="m12.422-21.281v3.2188h-2.7031c-0.6875 0-1.1719 0.125-1.4531 0.375-0.27344 0.25-0.40625 0.6875-0.40625 1.3125v1.0625h4.1875v3.5h-4.1875v11.812h-4.8906v-11.812h-2.4375v-3.5h2.4375v-1.0625c0-1.6641 0.46094-2.8984 1.3906-3.7031 0.92578-0.80078 2.3672-1.2031 4.3281-1.2031z"/>
  </symbol>
  <symbol id="q" overflow="visible">
   <path d="m16.547-12.766c0.61328-0.94531 1.3477-1.6719 2.2031-2.1719 0.85156-0.5 1.7891-0.75 2.8125-0.75 1.7578 0 3.0977 0.54688 4.0156 1.6406 0.92578 1.0859 1.3906 2.6562 1.3906 4.7188v9.3281h-4.9219v-7.9844-0.35938c0.007813-0.13281 0.015625-0.32031 0.015625-0.5625 0-1.082-0.16406-1.8633-0.48438-2.3438-0.3125-0.48828-0.82422-0.73438-1.5312-0.73438-0.92969 0-1.6484 0.38672-2.1562 1.1562-0.51172 0.76172-0.77344 1.8672-0.78125 3.3125v7.5156h-4.9219v-7.9844c0-1.6953-0.14844-2.7852-0.4375-3.2656-0.29297-0.48828-0.8125-0.73438-1.5625-0.73438-0.9375 0-1.6641 0.38672-2.1719 1.1562-0.51172 0.76172-0.76562 1.8594-0.76562 3.2969v7.5312h-4.9219v-15.312h4.9219v2.2344c0.60156-0.86328 1.2891-1.5156 2.0625-1.9531 0.78125-0.4375 1.6406-0.65625 2.5781-0.65625 1.0625 0 2 0.25781 2.8125 0.76562 0.8125 0.51172 1.4258 1.2305 1.8438 2.1562z"/>
  </symbol>
  <symbol id="p" overflow="visible">
   <path d="m2.5781-20.406h5.875l7.4219 14v-14h4.9844v20.406h-5.875l-7.4219-14v14h-4.9844z"/>
  </symbol>
  <symbol id="o" overflow="visible">
   <path d="m2.5781-20.406h8.7344c2.5938 0 4.582 0.57812 5.9688 1.7344 1.3945 1.1484 2.0938 2.7891 2.0938 4.9219 0 2.1367-0.69922 3.7812-2.0938 4.9375-1.3867 1.1562-3.375 1.7344-5.9688 1.7344h-3.4844v7.0781h-5.25zm5.25 3.8125v5.7031h2.9219c1.0195 0 1.8047-0.25 2.3594-0.75 0.5625-0.5 0.84375-1.2031 0.84375-2.1094 0-0.91406-0.28125-1.6172-0.84375-2.1094-0.55469-0.48828-1.3398-0.73438-2.3594-0.73438z"/>
  </symbol>
  <symbol id="n" overflow="visible">
   <path d="m2.3594-15.312h4.8906v15.031c0 2.0508-0.49609 3.6172-1.4844 4.7031-0.98047 1.082-2.4062 1.625-4.2812 1.625h-2.4219v-3.2188h0.85938c0.92578 0 1.5625-0.21094 1.9062-0.625 0.35156-0.41797 0.53125-1.2461 0.53125-2.4844zm0-5.9688h4.8906v4h-4.8906z"/>
  </symbol>
 </defs>
 <g>
  <path d="m186.89 369.04c-14.984 0.67969-29.363 6.1016-41.062 15.488l-26.852-26.852c-3.6797-3.6797-5.707-8.5664-5.707-13.77s2.0273-10.09 5.707-13.77l211.06-211.06 5.3984 5.3984-30.391 30.391c-2.1758 2.1875-2.8242 5.4648-1.6445 8.3164 1.1836 2.8516 3.9609 4.7109 7.043 4.7188 1.9531 0 3.9102-0.74609 5.3984-2.2344l30.391-30.391 18.406 18.406h0.003906c1.4297 1.4375 3.3711 2.2461 5.3984 2.2461 2.0273-0.003906 3.9688-0.8125 5.3984-2.25 1.4336-1.4297 2.2383-3.375 2.2383-5.3984 0-2.0273-0.80469-3.9688-2.2383-5.3984l-18.406-18.406 56.867-56.867 15.539 15.539c2.9805 2.9805 7.8164 2.9805 10.797 0 2.9805-2.9844 2.9805-7.8164 0-10.797l-17.961-17.973c-2.2344-2.2383-5.207-3.4727-8.3711-3.4727s-6.1328 1.2305-8.3672 3.4648l-59.297 59.305-5.3984-5.3984 17.613-17.613v0.003906c2.9805-2.9805 2.9844-7.8164 0-10.801-2.9805-2.9805-7.8164-2.9844-10.797 0l-239.48 239.46c-6.5391 6.5039-10.203 15.348-10.176 24.566 0 9.2773 3.6133 18.004 10.176 24.566l31.953 31.953v0.003907c1.4258 1.4336 3.3672 2.2422 5.3906 2.2461 2.0234 0.003907 3.9648-0.80078 5.3945-2.2305 9.7852-9.7617 22.867-15.52 36.676-16.141 4.2109-0.19141 7.4727-3.7656 7.2773-7.9805-0.19141-4.2109-3.7656-7.4727-7.9766-7.2773z"/>
  <path d="m591.84 191.53-31.953-31.953c-2.9766-2.9805-7.8047-2.9844-10.785-0.011719-21.688 21.59-56.93 21.547-78.566-0.085937-21.637-21.637-21.676-56.879-0.085938-78.562v0.003906c2.9688-2.9844 2.9648-7.8086-0.011718-10.789l-31.953-31.953c-6.5-6.5391-15.352-10.207-24.574-10.18-9.2188-0.027344-18.066 3.6367-24.566 10.176l-22.793 22.793c-2.9805 2.9805-2.9805 7.8125 0 10.797 2.9844 2.9805 7.8164 2.9805 10.797 0l22.793-22.793c3.6445-3.6641 8.6016-5.7188 13.77-5.7031 5.2031 0 10.09 2.0273 13.77 5.707l26.852 26.852c-22.305 27.805-20.562 68.695 5.1953 94.457 25.754 25.762 66.652 27.5 94.457 5.1953l26.852 26.852h0.003906c3.6445 3.6562 5.6953 8.6094 5.6953 13.773 0 5.1602-2.0508 10.113-5.6953 13.77l-59.293 59.297-2.6992-2.6992c-2.9844-2.9805-7.8164-2.9805-10.797 0-2.9844 2.9805-2.9844 7.8164 0 10.797l2.6992 2.6992-211.06 211.05h-0.003906c-3.6445 3.6641-8.6016 5.7148-13.77 5.6992-5.168 0.011719-10.125-2.0391-13.77-5.6992l-26.852-26.852c22.305-27.805 20.562-68.695-5.1953-94.457h-0.003907c-7.0547-7.0781-15.543-12.574-24.891-16.117-1.8945-0.71875-3.9961-0.65625-5.8398 0.17188-1.8477 0.83203-3.2891 2.3594-4.0117 4.2539-1.4961 3.9414 0.48438 8.3516 4.4258 9.8477 7.3281 2.7812 13.98 7.0898 19.516 12.641 21.637 21.633 21.676 56.879 0.085938 78.566h-0.003907c-2.9688 2.9844-2.9648 7.8125 0.011719 10.789l31.953 31.953c6.5039 6.5391 15.352 10.207 24.574 10.18 9.2227 0.023438 18.07-3.6367 24.574-10.176l281.16-281.15h-0.003906c6.5078-6.5234 10.164-15.359 10.16-24.57 0-9.2148-3.6562-18.051-10.164-24.57z"/>
  <path d="m407 223.02c-12.977-12.988-33.523-3.0898-72.727 35.352-27.707-10.332-55.5-20.438-83.371-30.32-3.4414-1.2148-7.2617 0.17578-9.1172 3.3164l-4.0703 6.8945h-0.003907c-2.0508 3.4688-1.0508 7.9336 2.2812 10.199 14.191 9.6484 24.523 16.824 34.52 23.754 9.0039 6.25 17.594 12.215 28.273 19.477-13.887 16.57-19.117 23.285-29.469 37.039-8.6523-2.0078-17.352-3.8047-26.09-5.3867-2.8164-0.49609-5.668 0.62891-7.3984 2.9062l-5.2422 6.8984h0.003907c-1.2617 1.6523-1.793 3.7461-1.4727 5.7969 0.32422 2.0547 1.4688 3.8867 3.1719 5.0703 5.6953 3.9883 23.879 18.156 27.871 21.055l0.76172 0.76172c3.5664 4.918 18.34 24.188 21.141 28.012v0.003906c1.2266 1.6797 3.0859 2.7891 5.1484 3.0664 2.0625 0.27344 4.1484-0.30469 5.7734-1.6055l8.2539-6.5742c2.418-1.9336 3.4375-5.1289 2.5742-8.1016-0.035156-0.125-3.2188-11.117-6.5469-24.059l6.2266-4.8789h0.003907c10.344-8.0469 20.59-16.223 30.73-24.527 2.4805 3.6914 4.7773 7.1016 6.9492 10.309 2.3633 3.4961 7.1133 4.4141 10.605 2.0508 3.4961-2.3633 4.4141-7.1133 2.0508-10.609-3.4609-5.125-7.2539-10.754-11.598-17.238v0.003907c-1.1953-1.793-3.0938-2.9961-5.2266-3.3125-2.1328-0.3125-4.3008 0.29297-5.9609 1.6641-12.168 10.062-24.488 19.941-36.953 29.633l-10.152 7.957h-0.003906c-2.3633 1.8594-3.418 4.9297-2.6914 7.8516 1.6562 6.6523 3.375 13.098 4.7812 18.25-0.45313-0.59375-13.574-17.969-13.859-18.262l-1.6172-1.6172c-0.29297-0.29297-15.445-11.879-16.766-12.898 4.8086 0.99609 10.625 2.2695 16.867 3.7695h-0.003907c2.9609 0.70703 6.0586-0.40625 7.8867-2.8398 13.922-18.531 17.953-23.781 37.391-46.844 1.3945-1.6602 2.0195-3.8281 1.7188-5.9727-0.29688-2.1445-1.4883-4.0625-3.2812-5.2773-11.77-7.9609-23.48-16.004-35.141-24.125l-11.465-7.9453 0.003906-0.003907c20.621 7.4297 41.199 14.984 61.734 22.66 2.7969 1.0469 5.9492 0.36719 8.0625-1.7422 44.594-44.387 53.34-40.129 54.645-38.824 1.3047 1.3047 5.5547 10.062-38.898 54.711-2.1172 2.1289-2.7891 5.293-1.7305 8.0977 7.8789 20.844 15.59 41.75 23.129 62.719-1.9922-2.8633-3.9141-5.6289-5.8203-8.3828h0.003906c-1.1523-1.668-2.918-2.8086-4.9102-3.1719-1.9922-0.36328-4.0508 0.082031-5.7148 1.2344-1.668 1.1523-2.8086 2.918-3.1719 4.9102-0.36328 1.9922 0.082031 4.0508 1.2344 5.7148 7.0508 10.176 14.137 20.324 21.258 30.453 2.2852 3.2578 6.6875 4.2188 10.121 2.207l6.9375-4.0703c3.1523-1.8477 4.5547-5.6719 3.3438-9.1211-0.15234-0.42578-14.699-41.777-30.379-83.324 38.477-39.223 48.391-59.773 35.398-72.762zm16.312-32.273c-3.0078-2.8203-7.7109-2.7461-10.625 0.16797-2.918 2.918-2.9922 7.6211-0.17188 10.629l15.953 15.953h0.003906c1.4297 1.4375 3.3711 2.2461 5.3984 2.2422 2.0273 0 3.9688-0.80859 5.3984-2.2461 1.4336-1.4336 2.2383-3.375 2.2383-5.3984 0-2.0273-0.80469-3.9688-2.2383-5.3984l-15.953-15.949zm53.023 63.816c-1.4336 1.4297-2.2422 3.375-2.2422 5.3984 0 2.0273 0.80859 3.9688 2.2422 5.3984l15.953 15.953c1.4297 1.4375 3.3711 2.2461 5.3984 2.2461 2.0273-0.003907 3.9688-0.8125 5.3984-2.25 1.4336-1.4297 2.2383-3.3711 2.2383-5.3984 0-2.0234-0.80469-3.9688-2.2383-5.3984l-15.953-15.953c-2.9844-2.9805-7.8164-2.9766-10.797 0.003906zm-31.91-31.906c-1.4336 1.4297-2.2383 3.3711-2.2383 5.3945 0 2.0273 0.80469 3.9688 2.2383 5.3984l15.953 15.953v0.003906c1.4297 1.4375 3.375 2.2422 5.4023 2.2422 2.0234 0 3.9688-0.80859 5.3945-2.25 1.4336-1.4297 2.2383-3.3711 2.2383-5.3984 0-2.0234-0.80469-3.9648-2.2383-5.3984l-15.953-15.953c-2.9844-2.9727-7.8164-2.9727-10.797 0.007813zm-42.465-34.828c3.0938 0.007812 5.8867-1.8516 7.0664-4.7109 1.1836-2.8555 0.52734-6.1445-1.668-8.3242l-15.953-15.953v-0.003907c-3.0078-2.8203-7.7109-2.7461-10.629 0.17188-2.9141 2.9141-2.9922 7.6172-0.16797 10.625l15.953 15.953c1.4883 1.4961 3.4453 2.2383 5.3984 2.2383zm148.91 16.734 13.973 13.973c1.4883 1.4883 3.4453 2.2344 5.3984 2.2344s3.9102-0.74609 5.3984-2.2344v-0.003906c1.4336-1.4297 2.2383-3.375 2.2383-5.3984 0-2.0273-0.80469-3.9727-2.2383-5.4023l-17.949-17.949c-2.4297-2.4258-6.1797-2.9375-9.168-1.2422-11.797 6.6602-25.121 10.152-38.668 10.137-20.84 0.054687-40.832-8.2266-55.527-23-3.0039-2.8672-7.7461-2.8125-10.68 0.12109-2.9375 2.9375-2.9883 7.6797-0.11719 10.68 17.551 17.652 41.434 27.543 66.324 27.477 14.207 0.011719 28.23-3.1992 41.016-9.3906zm-406.91 153.62c-3.668 2.082-4.9531 6.7422-2.8711 10.41 2.082 3.668 6.7422 4.9531 10.41 2.875 11.797-6.6602 25.117-10.152 38.668-10.137 20.977 0 40.695 8.1641 55.523 23 1.4297 1.4336 3.3711 2.2422 5.3984 2.2422 2.0273 0 3.9688-0.80859 5.3984-2.2422 2.9805-2.9844 2.9805-7.8164 0-10.797-17.551-17.652-41.438-27.543-66.328-27.477-16.188-0.019531-32.105 4.1602-46.199 12.125z"/>
 </g>
</svg>
