<?xml version="1.0" encoding="UTF-8"?>
<svg width="700pt" height="700pt" version="1.1" viewBox="0 0 700 700" xmlns="http://www.w3.org/2000/svg">
 <path d="m111.66 464.94c0-0.32422 0.15625-1.582 0.34375-2.7969 0.38672-2.5078 0.71875-4.4062 7.8633-45.086 1.6445-9.3633 4.6406-26.434 7.3242-41.734 0.96094-5.4844 2.543-14.496 3.5156-20.031 2.8086-16.004 5.2734-30.07 5.9258-33.793 0.83984-4.793 3.5664-20.332 7.3242-41.734 3.5625-20.281 4.5117-25.707 5.9258-33.793 3.1055-17.762 4.2266-23.797 4.4648-24.043 0.13281-0.13672 1.0039-0.34375 12.09-2.8711 3.582-0.81641 6.5273-1.5078 6.5469-1.5352 0.019531-0.027344 0.28516-2.1133 0.59375-4.6367 0.60156-4.9375 0.66406-5.1523 1.7617-5.793 0.47656-0.27734 2.1094-0.42188 12.191-1.0625 6.4023-0.41016 11.672-0.78125 11.711-0.82422 0.035156-0.042969 0.16016-0.87891 0.27344-1.8477 0.11328-0.97266 0.91797-7.5234 1.7852-14.559 0.86719-7.0352 2.0586-16.711 2.6484-21.5 0.58984-4.7891 1.1445-8.8438 1.2383-9.0156 0.42188-0.78516 0.53906-0.80078 5.3516-0.80469l4.5898-0.019531-0.035156-1.4102c-0.050781-2.1016-0.35547-6.5352-0.65625-9.5312-0.82422-8.1875-1.0898-11.559-0.91016-11.559 0.52734 0 4.375 0.95703 11.254 2.7969 4.707 1.2578 14.988 4.0078 22.848 6.1094 7.8633 2.1016 16.039 4.2891 18.168 4.8633s3.9023 1.0117 3.9336 0.98047c0.082031-0.085938 1.3086-9.9453 2.0625-16.625 1.2422-11.008 1.6328-16.633 1.7891-25.957 0.070313-4.1367 0.21484-7.1875 0.44141-9.3516 0.18359-1.7656 0.33984-3.2539 0.33984-3.3047 0-0.050781 0.67969 0.31641 1.5156 0.82812 0.94531 0.57812 2.3984 1.7539 3.8711 3.1289 15.48 14.484 14.902 13.93 24.438 23.383 4.5117 4.4727 10.352 10.148 12.973 12.609 9.9648 9.3633 14.898 14.613 19.332 20.566 4.0664 5.4609 6.5742 10.285 7.7578 14.922 1.0586 4.1445 1.1992 5.9062 1.4062 17.812 0.097656 5.582 0.22656 10.711 0.28906 11.398l0.10938 1.2539 1.9609-0.69141c9.4375-3.332 24.438-5.9297 38.492-6.6641 7.5-0.39453 17.645-0.14844 33 0.79688 2.3281 0.14453 8.8828 0.54297 14.559 0.88281 17.723 1.0703 26.973 1.9141 38.473 3.5195 1.6992 0.23438 5.2891 0.63281 7.9766 0.88281s5.7461 0.60938 6.793 0.80078 2.2422 0.34766 2.6602 0.34766c0.68359 0.003906 1.4531 0.44531 8.0312 4.6172 11.941 7.5781 12.379 7.8516 12.758 8.0547 0.26563 0.14062 1.6641 0.14453 5.0273 0.007813 5.2148-0.20703 5.4766-0.16406 6.0625 0.97266 0.16016 0.30469 1.4023 4.5273 2.7617 9.3789 3.1133 11.09 4.5352 16.152 14.102 50.117 0.76562 2.7188 3.2578 11.57 5.5391 19.676s6.5312 23.191 9.4414 33.531c15.652 55.59 24.617 87.426 26.758 95.031 0.71094 2.5234 2.8125 9.9961 4.6758 16.605 3.2969 11.703 3.3789 12.035 3.1289 12.633-0.17188 0.41016-0.48047 0.72266-0.94141 0.94141-0.75 0.36328 3.6719 0.21094-48.301 1.668-47.035 1.3203-57.629 1.6172-75.652 2.1133-10.531 0.28906-20.457 0.56641-22.059 0.62109-1.6016 0.046875-4.4609 0.13281-6.3516 0.18359-1.8945 0.046875-4.75 0.13281-6.3516 0.18359-1.6016 0.046874-8.668 0.24609-15.707 0.43359-12.203 0.32422-14.816 0.40234-21.883 0.62109-1.6992 0.054687-20.121 0.57031-40.941 1.1484-20.82 0.57813-47.742 1.332-59.824 1.6719-67.676 1.9023-125.03 3.5039-141.8 3.9648-22.898 0.625-30.734 0.85547-34.191 0.99219l-2.6016 0.10547v-0.58984zm24.617-5.3398c12.512-2.0547 23.59-3.3281 46.941-5.3945 21.469-1.9023 34.531-2.7344 48.531-3.0898 2.2305-0.058594 8.0312-0.22656 12.883-0.375 14.32-0.4375 65.074-0.43359 75.531 0.003906 8.2344 0.34766 12.324 0.59375 19.715 1.1953 2.6914 0.21875 4.9219 0.35938 4.9648 0.31641 0.082031-0.089843-0.66406-5.4219-0.77734-5.5352-0.12109-0.11719-4.8789-1.4688-6.6055-1.875-3.9219-0.91797-11.723-1.7773-19.145-2.1055-18.898-0.83984-69.59-1.1562-87.883-0.54688-27.477 0.91016-46.695 2.5664-64.855 5.5898-9.6172 1.6016-17.902 3.5-18.574 4.2617-0.17188 0.19531-3.4453 2.0781-7.2812 4.1914-3.832 2.1094-7.0117 3.875-7.0586 3.9258-0.046874 0.046876 0.14844 0.039063 0.44141-0.019531 0.29297-0.058593 1.7188-0.30078 3.1758-0.53906zm5.4961-2.1328c-0.35156-0.35156-0.375-1.0312-0.050782-1.3008 0.23047-0.19141 11.336-1.5234 27.996-3.3633 29.43-3.2461 51.758-5.1914 69.973-6.1055 6.1289-0.30859 21.047-0.60547 25.5-0.51172 1.6016 0.035156 6.0664 0.10547 9.9258 0.16016 13 0.17969 27.941 0.82422 52.613 2.2812 11.699 0.69141 12.703 0.77344 12.926 1.0781 0.30469 0.41797 0.30469 0.64062-0.003906 1.0625-0.24219 0.33203-0.35547 0.33203-7.1016-0.058593-3.7695-0.21875-9.4766-0.55078-12.68-0.73828-38.121-2.2148-62.336-2.5898-85.148-1.3164-20.238 1.1289-47.336 3.6914-84.797 8.0273-4.1719 0.48438-7.875 0.92188-8.2266 0.97656-0.45703 0.070313-0.71875 0.019532-0.92578-0.19141zm6.1602-3.9609c-0.36328-0.40234-0.25781-1.1406 0.1875-1.3125 0.36328-0.13672 25.004-3.2031 34.129-4.2422 25.254-2.8789 42.582-4.3047 59.297-4.8828 6.5938-0.22656 29.699-0.11328 38.117 0.18359 14.039 0.5 25.973 1.043 39.266 1.7852 18.332 1.0234 23.195 1.3516 23.473 1.5781 0.36719 0.30469 0.32812 0.99219-0.070313 1.2734-0.28125 0.19531-1.6289 0.16016-8.3398-0.24219-26.469-1.5781-42.715-2.332-60.238-2.7969-8.3594-0.22266-27.785-0.22266-33.617 0-20.805 0.79688-42.707 2.8633-80.508 7.5938-6.1836 0.77344-11.273 1.4062-11.312 1.4062-0.039062 0-0.21094-0.15625-0.38281-0.34766zm-11.523 0.53516c5.9844-3.3125 7.7383-4.3555 7.8008-4.6562 0.042968-0.21484 4.7344-37.949 10.422-83.855 9.3398-75.391 14.566-117.55 17.012-137.21 0.47656-3.832 0.84766-6.9922 0.82031-7.0156-0.10547-0.10938-4.0898 0.89844-4.2734 1.082-0.10938 0.10938-0.60547 2.582-1.1016 5.4922-0.49609 2.9102-1.4922 8.707-2.2148 12.883-0.72266 4.1719-2.8711 16.602-4.7734 27.617-3.8555 22.32-5.1602 29.867-7.5 43.414-0.88281 5.0938-2.1914 12.68-2.9102 16.852-0.71875 4.1719-2.4297 14.062-3.7969 21.973-1.3672 7.9102-3.9922 23.117-5.8359 33.793-4.0898 23.691-4.6992 27.211-6.6914 38.734-4.1992 24.289-6.1758 35.777-6.1758 35.898 0 0.070313 0.33594-0.058594 0.75-0.30078 0.41406-0.23828 4.2227-2.3555 8.4688-4.707zm-6.2656-0.91016c-0.44531-0.26172-0.40234-0.85156 0.39062-5.4062 0.38672-2.2109 3.207-18.555 6.2734-36.316 3.0664-17.762 8.2734-47.938 11.574-67.059 3.3008-19.121 6.7891-39.332 7.75-44.914 0.96094-5.582 3.6562-21.188 5.9844-34.676 2.3281-13.492 4.6797-27.152 5.2227-30.352 0.54297-3.2031 1.0625-6.0039 1.1523-6.2227 0.19531-0.48047 1.0625-0.54688 1.4219-0.10938 0.25391 0.30859 0.17969 0.80469-2.918 18.684-1.2031 6.9531-5.2734 30.52-16.969 98.297-2.3789 13.781-5.4336 31.492-6.793 39.355-1.3594 7.8633-3.2969 19.098-4.3086 24.973-1.0117 5.8711-2.7578 15.996-3.8828 22.5-1.125 6.5039-2.3203 13.453-2.6602 15.441-0.85156 5-0.94531 5.4336-1.2461 5.7344-0.30859 0.30859-0.55859 0.32422-0.98828 0.070312zm5.4375-9.2617c-0.15234-0.15234-0.27734-0.42969-0.27734-0.61328 0-0.18359 1.6641-10.48 3.6992-22.887 2.0352-12.402 5.2148-31.801 7.0664-43.109 1.8516-11.309 4-24.41 4.7734-29.117s1.7188-10.504 2.1094-12.883c1.1758-7.2188 7.5703-46.207 7.875-48 0.34766-2.0664 0.46094-2.293 1.1367-2.293 1.0156 0 1.0195-0.027344-0.78906 10.941-0.92188 5.582-2.9062 17.691-4.418 26.914-1.5078 9.2227-3.8555 23.555-5.2188 31.855-5.5508 33.852-10.938 66.73-12.102 73.855-2.4141 14.781-2.4805 15.137-2.8203 15.383-0.42188 0.30859-0.69531 0.29688-1.0352-0.042969zm5.4727-2.8242c-0.15234-0.15234-0.27734-0.31641-0.27734-0.36719 0-0.046876 1.8633-12.93 4.1406-28.621 2.2734-15.695 5.2578-36.277 6.6211-45.738 1.3672-9.4648 2.5234-17.383 2.5703-17.602 0.097656-0.45312 0.86719-0.72266 1.2969-0.45312 0.15625 0.097656 0.30469 0.36719 0.33203 0.60156 0.027344 0.23437-1.3477 10.031-3.0508 21.777-1.7031 11.746-4.2031 28.977-5.5547 38.293-1.3516 9.3164-2.9414 20.27-3.5312 24.34-0.58984 4.0703-1.1523 7.543-1.25 7.7227-0.21094 0.39453-0.91797 0.42188-1.293 0.042969zm217.23 10.16c23.41-1.8984 30.57-2.4531 43.059-3.3477 21.043-1.5039 38.75-2.5195 52.234-3 2.8164-0.097656 6.0312-0.21875 7.1484-0.26953 1.1172-0.046875 7.8672-0.13672 15-0.20312 21.445-0.1875 48.445 0.42969 82.59 1.8789 2.1836 0.089844 4.3672 0.16797 4.8516 0.16016l0.88281-0.007812-1.4102-0.50391c-8.168-2.918-8.8633-3.1172-11.559-3.332-6.3398-0.5-13.918-1.168-23.383-2.0586-30.68-2.8828-49.086-3.5352-76.766-2.7344-3.3008 0.09375-11.398 0.29297-18 0.4375-18.574 0.40625-20.219 0.44922-30.352 0.80469-18.836 0.66406-33.027 2.2188-43.359 4.75-1.5703 0.38281-7.5977 2.2422-11.234 3.4609-0.16797 0.054687-0.21094 0.25781-0.13672 0.65234 0.054688 0.31641 0.19141 1.2852 0.29688 2.1602 0.25391 2.082 0.22656 2.0234 0.91406 1.9297 0.32031-0.042969 4.4727-0.39453 9.2305-0.78125zm-2.6992-0.91797c-0.28906-0.28906-0.26562-0.93359 0.039063-1.1875 0.47266-0.39453 37.523-3.8359 56.043-5.207 17.062-1.2617 27.371-1.6172 52.367-1.8008 15.414-0.11328 16.117-0.10547 16.457 0.20312 0.44141 0.39844 0.45312 0.82812 0.03125 1.2109-0.29297 0.26563-1.2969 0.29297-10.723 0.29297-17.109 0.003907-33.691 0.36719-44.898 0.97656-13.297 0.72656-33.434 2.4023-60.41 5.0234-7.8516 0.76172-8.5938 0.80469-8.9102 0.48828zm-3.6289-2.0547c-0.375-0.41406-0.37109-0.78906 0.015625-1.125 0.63672-0.55469 35.566-5.0078 50.164-6.3945 22.859-2.1719 40.254-2.5469 69.707-1.5078 19.125 0.67578 47.488 2.2539 72.695 4.0469 6.6328 0.47266 6.9727 0.51172 7.2695 0.87891 0.51562 0.63281 0.19531 1.1484-0.75 1.2109-0.42578 0.03125-4.8242-0.22656-9.7734-0.57031-42.457-2.9375-73.824-4.3398-97.059-4.3438-24.129-0.003907-41.547 1.4258-79.672 6.5352-6.5469 0.875-11.996 1.5938-12.105 1.5938-0.10937 0-0.33203-0.14453-0.49219-0.32422zm-194.68-2.5156c16.648-3.332 38.574-5.6367 63.617-6.6875 12.477-0.52344 19.145-0.61719 42.707-0.61328 33.258 0.007812 53.641 0.46094 63.762 1.418 1.6328 0.15625 3.0039 0.24609 3.043 0.20703 0.042969-0.042969-1.3711-0.83984-3.1445-1.7734-7.6562-4.0352-15.574-7.2773-27.484-11.25-15.527-5.1797-31.637-9.6484-80.469-22.316-5.4844-1.4219-14.18-3.7266-19.324-5.1172-5.1445-1.3906-12.41-3.3359-16.148-4.3203-3.7383-0.98438-6.8945-1.8242-7.0156-1.8633-0.53516-0.17188-0.25391-3.8828 1.1914-15.562 0.77734-6.2891 1.6094-13.062 1.8516-15.051 0.24219-1.9883 1.4727-11.996 2.7383-22.234 1.2656-10.238 2.7305-22.152 3.2617-26.473 0.52734-4.3203 2.1562-17.543 3.6133-29.383 1.4609-11.84 3.1719-25.738 3.8047-30.883 0.63281-5.1445 1.7461-14.156 2.4688-20.031 2.7344-22.152 3.0508-24.797 2.9688-24.879-0.10156-0.10156-21.117 1.2266-21.23 1.3398-0.042969 0.042968-1.2539 9.5469-2.6914 21.117-1.4336 11.57-3.2422 26.121-4.0117 32.332-7.707 62-22.777 183.62-22.777 183.83 0 0.22266 0.48047 0.15625 2.8672-0.41797 1.5781-0.37891 4.457-1.0078 6.3984-1.3945zm416.3-0.03125c-0.042969-0.12109-2.9805-10.426-6.5312-22.898-6.1641-21.66-9.4102-33.062-19.941-70.059-2.5859-9.0742-5.9961-21.066-7.5859-26.648-1.5898-5.582-4.9219-17.293-7.4102-26.031-2.4883-8.7344-5.2695-18.504-6.1758-21.707-0.91016-3.2031-4.2344-14.879-7.3867-25.945-9.2617-32.504-10.352-36.363-10.352-36.645 0-0.16406-3.1211-2.2461-7.8984-5.2695-4.3438-2.75-8.0703-5.1094-8.2852-5.2461-0.37891-0.24219-0.38281-0.23438-0.23047 0.33984 0.085938 0.32422 1.875 7.1367 3.9727 15.145 2.0977 8.0078 6.0703 23.137 8.8203 33.617 2.7539 10.484 7.7539 29.543 11.117 42.355 3.3633 12.812 7.332 27.941 8.8242 33.617 1.4922 5.6797 4.1914 15.961 6 22.852 1.8086 6.8906 4.5078 17.176 6 22.852 1.4922 5.6797 5.4609 20.805 8.8203 33.617 7.5938 28.949 7.6172 29.043 7.7969 29.199 0.082032 0.066407 1.8945 0.72656 4.0273 1.4648 9.2852 3.1953 13.84 4.7734 14.91 5.1641 1.3242 0.48437 1.6094 0.52344 1.5 0.21875zm-13.203-7.5781c-0.13672-0.22266-0.57812-1.6367-0.97266-3.1445-0.62891-2.3867-14.676-55.367-30.297-114.27-2.7539-10.387-9.6602-36.434-15.352-57.883-5.6875-21.449-10.816-40.773-11.395-42.941-1.0859-4.0781-1.1992-4.7539-0.83984-5.1133 0.27734-0.27734 0.92969-0.26953 1.1641 0.011719 0.10156 0.12109 2.3008 8.2031 4.8906 17.957 2.5859 9.7539 6.7656 25.516 9.2891 35.027 2.5234 9.5117 10.453 39.41 17.621 66.441 31.398 118.38 27.496 103.5 27.246 103.89-0.30469 0.48828-1.0625 0.49609-1.3633 0.015625zm-4.5-0.54688c-0.10156-0.125-2.9375-10.547-6.2969-23.164-3.3594-12.613-9.168-34.41-12.902-48.438-10.301-38.66-16.887-63.387-23.621-88.676-3.3594-12.617-8.6055-32.312-11.66-43.77-3.0508-11.457-5.5469-20.988-5.5469-21.188 0-0.80859 1.043-1.0781 1.4766-0.38672 0.13672 0.21875 3.1133 11.156 6.6133 24.309 6.7266 25.273 20.383 76.543 33.559 126 20.52 77.016 19.949 74.84 19.758 75.191-0.21094 0.39063-1.082 0.46094-1.3711 0.11328zm9.6133-0.34766c-0.13672-0.21875-0.60938-1.7461-1.0508-3.3984-0.44141-1.6484-1.7148-6.375-2.832-10.5-7.2305-26.715-18.043-66.645-23.699-87.531-3.6406-13.441-10.102-37.305-14.359-53.031-4.2578-15.723-8.8906-32.836-10.297-38.031-7.9688-29.414-7.8945-29.117-7.6992-29.477 0.21484-0.39844 1.082-0.48047 1.3711-0.12891 0.097656 0.12109 3.2109 11.418 6.918 25.102 7.0469 26.035 16.699 61.68 21.621 79.855 1.5898 5.8711 6.793 25.09 11.562 42.707 4.7695 17.617 11.207 41.387 14.305 52.828 3.0977 11.438 5.6367 20.973 5.6367 21.188 0 0.83594-1.0312 1.125-1.4727 0.41406zm-214.35 5.1445c0-0.089844 0.097656-0.16016 0.22266-0.16016 0.30078 0 3.0703-1.8477 3.8086-2.5352 0.72266-0.67969 1.0898-1.3477 1.0898-2.0039 0-1.0156-0.58984-1.4648-3.332-2.5195-0.8125-0.3125-2.0391-0.88672-2.7266-1.2773s-1.75-0.93359-2.3594-1.207l-1.1094-0.5 0.003906 0.83203c0.003906 0.59766 0.64453 10.48 0.69531 10.746 0.023437 0.11719 3.7109-1.2422 3.7109-1.3711zm-7.7695-6.5977c-0.1875-2.8047-0.40234-5.1602-0.47656-5.2305-0.070313-0.070312-18.68-8.3633-41.344-18.426-57.301-25.441-57.418-25.492-57.656-25.73-0.35547-0.35547 0.039063-3.4688 1.0938-8.5938 1.9531-9.5078 5.7031-37.195 8.1172-59.957 1.043-9.8281 1.7266-18.582 2.5625-32.777 2.2891-38.879 3.7109-53.797 8.9883-94.238 1.2617-9.668 1.9648-15.25 2.5703-20.383 0.24609-2.0859 0.80859-6.7188 1.25-10.297s0.76953-6.5938 0.72656-6.707-0.625-0.34766-1.293-0.52344c-1.9531-0.50391-24.668-6.5703-38.18-10.188-6.8359-1.8281-12.465-3.293-12.504-3.2539-0.039062 0.039063 0.09375 1.4062 0.29297 3.0391 0.45703 3.7109 0.67188 6.0547 0.90234 9.7617 0.24219 3.9062 0.80078 20.84 1.2383 37.414 0.09375 3.6406 0.22656 8.3633 0.28516 10.5 0.64062 22.121 0.50781 34.363-0.72656 68.117-0.23828 6.5039-0.59375 16.43-0.78906 22.059-0.19531 5.6289-0.51562 14.484-0.70703 19.676-0.19141 5.1914-0.46875 13.055-0.61328 17.473-0.86328 26.449-1.2148 33.562-2.0391 41.414-0.65625 6.2305-2.043 13.973-3.2812 18.309-0.35156 1.2305-0.60938 2.2617-0.57422 2.293 0.17969 0.16016 3.8359 1.4375 6.1211 2.1484 4.9531 1.5352 10.723 2.9102 24.031 5.7148 20.344 4.293 26.289 5.7109 35.121 8.3906 8.6914 2.6367 19.152 6.4609 30.879 11.289 17.129 7.0508 24.438 11.281 31.238 18.09 1.4102 1.4102 3.1133 3.293 3.7891 4.1875s1.2461 1.6055 1.2695 1.582c0.023438-0.019531-0.11328-2.3359-0.30078-5.1406zm-5.6602 3.4141c-4.4688-4.9453-10.559-9.2344-18.781-13.219-10.188-4.9336-29.438-12.461-41.473-16.215-9.7461-3.0391-15.824-4.5195-35.91-8.7461-14.988-3.1562-23.262-5.1484-28.645-6.9062-2.9297-0.95703-5.9453-2.4102-5.9453-2.8633 0-0.17187 0.28125-1.1406 0.625-2.1523 1.1562-3.4219 2.2617-8.3359 3.1523-14.023 1.3906-8.8828 1.8711-16.617 2.7578-44.113 0.19531-6.0195 0.51172-15.191 0.70312-20.383 0.19141-5.1914 0.50781-14.008 0.70312-19.59 0.19531-5.582 0.55078-15.469 0.78906-21.973 1.1133-30.32 1.3438-44.328 0.97656-59.559-0.25781-10.66-0.85547-33.133-0.97656-36.617-0.058594-1.6484-0.16406-4.9258-0.24219-7.2812-0.078125-2.3555-0.16797-4.3125-0.20703-4.3516-0.10547-0.10156-6.8281-0.19922-6.9258-0.10156-0.046875 0.046875-0.49219 3.4219-0.99219 7.5-0.85938 7.0469-2.25 18.332-4.5977 37.324-0.58203 4.707-2.5664 20.828-4.4141 35.824-4.3633 35.441-3.8633 31.387-6.7031 54.441-1.3633 11.066-2.7148 22.023-3 24.352-0.28516 2.3281-1.6367 13.289-3 24.352-1.3633 11.066-2.8359 23.055-3.2773 26.648-0.44141 3.5898-1.1523 9.3438-1.5781 12.785-0.42969 3.4414-0.76172 6.2656-0.74219 6.2812 0.023438 0.015625 1.9453 0.51562 4.2734 1.1133 4.3047 1.1055 6.5352 1.707 18.617 5.0195 3.7383 1.0273 12.195 3.2656 18.793 4.9766 45.801 11.871 63.656 16.82 78.355 21.703 15.867 5.2734 25.719 9.6016 36.938 16.238 1.0391 0.61328 1.918 1.0859 1.957 1.0508 0.035156-0.035156-0.51953-0.71484-1.2344-1.5117zm24.039 0.46094c11.191-2.2812 22.035-3.3984 39.332-4.0469 10.422-0.39062 11.824-0.42969 28.941-0.80469 8.6875-0.19141 18.691-0.44141 22.234-0.55469 8.0938-0.26562 27.176-0.26172 34.855 0.007812 15.508 0.53906 22.945 1.0781 48.973 3.5469 1.9883 0.19141 5.6836 0.50781 8.207 0.70703 2.5234 0.20312 4.6875 0.39844 4.8086 0.44141 0.12109 0.042968 0.21875-0.015625 0.21875-0.12891 0-0.22656 0.054688-0.019532-5.1406-19.812-2.0391-7.7656-5.1758-19.715-6.9688-26.559-1.7969-6.8438-4.2852-16.332-5.5352-21.09s-4.7812-18.215-7.8516-29.914c-3.0703-11.695-7.043-26.824-8.8242-33.617-1.7852-6.793-4.9219-18.746-6.9727-26.559-2.0508-7.8125-5.9805-22.781-8.7305-33.266-2.75-10.48-6.168-23.508-7.5938-28.941s-2.9258-11.152-3.3359-12.707l-0.74219-2.8242-1.75-0.29297c-0.96484-0.16016-3.6562-0.46094-5.9883-0.66797-2.3281-0.20703-6.2227-0.64844-8.6484-0.98047-13.418-1.8359-23.121-2.6172-55.941-4.4922-21.492-1.2266-32.52-0.89453-47.207 1.4258-7.7461 1.2227-15.254 3.0547-19.91 4.8516l-1.6484 0.63672 0.10547 1.4375c0.058594 0.78906 0.58203 10.332 1.1641 21.203 0.58203 10.871 1.2539 23.418 1.4961 27.883 0.24219 4.4648 0.59766 11.016 0.78906 14.559 0.19141 3.543 0.50781 9.3789 0.70703 12.973 0.19531 3.5898 0.83203 15.344 1.4102 26.117 1.0938 20.297 3.3398 61.902 3.793 70.238 0.14062 2.6211 0.37891 6.9883 0.52344 9.707 0.14844 2.7188 0.42578 7.8789 0.62109 11.473 0.78125 14.453 1.7617 32.727 1.8203 33.973 0.039063 0.83203 0.18359 1.5508 0.38281 1.9414 0.45312 0.86719 0.55859 2.7617 0.21484 3.7773-0.15234 0.44531-0.21484 0.8125-0.13281 0.8125 0.078125 0 1.125-0.19922 2.3281-0.44531zm-6.375-7.8047c0-0.17188-0.11719-2.375-0.26172-4.8984-0.14062-2.5234-0.42188-7.6055-0.61719-11.293-0.19531-3.6875-0.51953-9.6055-0.71094-13.148-0.19141-3.543-1.582-29.234-3.0859-57.09-1.5039-27.855-2.8945-53.566-3.0898-57.133-0.19531-3.5664-0.51172-9.4023-0.70312-12.973-0.80469-14.863-1.6484-30.57-2.6406-49.191-0.63281-11.875-1.1641-20.469-1.332-21.531-0.46484-2.9258-0.64844-7.4336-0.88672-21.793-0.097657-5.9141-0.3125-8.3672-0.96875-11.121-1.418-5.9258-4.6914-11.629-10.918-19.02-1.8711-2.2227-7.2656-7.9805-8.957-9.5625-2.0859-1.9492-7.6211-7.1836-9.5977-9.0742-1.1172-1.0664-5.6406-5.5195-10.059-9.8984-7.5898-7.5195-10.527-10.344-16.324-15.691-1.3594-1.2539-3.7188-3.5156-5.25-5.0273l-2.7773-2.7461-0.007812 3c-0.003906 1.6484-0.039063 3.4336-0.082032 3.9688-0.042968 0.53516-0.11719 2.7578-0.17187 4.9414-0.20703 8.625-0.85156 15.016-4.3164 42.793-0.96875 7.7656-2.0469 16.5-2.3906 19.414-0.34766 2.9102-1.1875 9.543-1.8672 14.734-5.2031 39.816-6.6445 54.25-8.6367 86.648-1.7891 29.047-2.0039 31.832-3.543 45.797-2.7539 25-5.625 45.738-7.9688 57.566-0.50391 2.543-0.87891 4.6562-0.83594 4.6992 0.042968 0.042969 6.0273 2.7109 13.293 5.9336 7.2656 3.2227 30.652 13.605 51.973 23.074 21.316 9.4688 39.512 17.531 40.434 17.914 0.92188 0.38281 1.75 0.76953 1.8438 0.85938 0.26172 0.25391 0.44922 0.19141 0.44922-0.14844z"/>
</svg>
