<?xml version="1.0" encoding="UTF-8"?>
<svg width="700pt" height="700pt" version="1.1" viewBox="0 0 700 700" xmlns="http://www.w3.org/2000/svg" xmlns:xlink="http://www.w3.org/1999/xlink">
 <defs>
  <symbol id="t" overflow="visible">
   <path d="m18.766-1.125c-0.96875 0.5-1.9805 0.875-3.0312 1.125-1.043 0.25781-2.1367 0.39062-3.2812 0.39062-3.3984 0-6.0898-0.94531-8.0781-2.8438-1.9922-1.9062-2.9844-4.4844-2.9844-7.7344 0-3.2578 0.99219-5.8359 2.9844-7.7344 1.9883-1.9062 4.6797-2.8594 8.0781-2.8594 1.1445 0 2.2383 0.13281 3.2812 0.39062 1.0508 0.25 2.0625 0.625 3.0312 1.125v4.2188c-0.98047-0.65625-1.9453-1.1406-2.8906-1.4531-0.94922-0.3125-1.9492-0.46875-3-0.46875-1.875 0-3.3516 0.60547-4.4219 1.8125-1.0742 1.1992-1.6094 2.8555-1.6094 4.9688 0 2.1055 0.53516 3.7617 1.6094 4.9688 1.0703 1.1992 2.5469 1.7969 4.4219 1.7969 1.0508 0 2.0508-0.14844 3-0.45312 0.94531-0.3125 1.9102-0.80078 2.8906-1.4688z"/>
  </symbol>
  <symbol id="b" overflow="visible">
   <path d="m13.734-11.141c-0.4375-0.19531-0.87109-0.34375-1.2969-0.4375-0.41797-0.10156-0.83984-0.15625-1.2656-0.15625-1.2617 0-2.2305 0.40625-2.9062 1.2188-0.67969 0.80469-1.0156 1.9531-1.0156 3.4531v7.0625h-4.8906v-15.312h4.8906v2.5156c0.625-1 1.3438-1.7266 2.1562-2.1875 0.82031-0.46875 1.8008-0.70312 2.9375-0.70312 0.16406 0 0.34375 0.011719 0.53125 0.03125 0.19531 0.011719 0.47656 0.039062 0.84375 0.078125z"/>
  </symbol>
  <symbol id="a" overflow="visible">
   <path d="m17.641-7.7031v1.4062h-11.453c0.125 1.1484 0.53906 2.0078 1.25 2.5781 0.70703 0.57422 1.7031 0.85938 2.9844 0.85938 1.0312 0 2.082-0.14844 3.1562-0.45312 1.082-0.3125 2.1914-0.77344 3.3281-1.3906v3.7656c-1.1562 0.4375-2.3125 0.76562-3.4688 0.98438-1.1562 0.22656-2.3125 0.34375-3.4688 0.34375-2.7734 0-4.9297-0.70312-6.4688-2.1094-1.5312-1.4062-2.2969-3.3789-2.2969-5.9219 0-2.5 0.75391-4.4609 2.2656-5.8906 1.5078-1.4375 3.582-2.1562 6.2188-2.1562 2.4062 0 4.332 0.73047 5.7812 2.1875 1.4453 1.4492 2.1719 3.3828 2.1719 5.7969zm-5.0312-1.625c0-0.92578-0.27344-1.6719-0.8125-2.2344-0.54297-0.57031-1.25-0.85938-2.125-0.85938-0.94922 0-1.7188 0.26562-2.3125 0.79688s-0.96484 1.2969-1.1094 2.2969z"/>
  </symbol>
  <symbol id="l" overflow="visible">
   <path d="m9.2188-6.8906c-1.0234 0-1.793 0.17188-2.3125 0.51562-0.51172 0.34375-0.76562 0.85547-0.76562 1.5312 0 0.625 0.20703 1.1172 0.625 1.4688 0.41406 0.34375 0.98828 0.51562 1.7188 0.51562 0.92578 0 1.7031-0.32812 2.3281-0.98438 0.63281-0.66406 0.95312-1.4922 0.95312-2.4844v-0.5625zm7.4688-1.8438v8.7344h-4.9219v-2.2656c-0.65625 0.92969-1.3984 1.6055-2.2188 2.0312-0.82422 0.41406-1.8242 0.625-3 0.625-1.5859 0-2.8711-0.45703-3.8594-1.375-0.99219-0.92578-1.4844-2.1289-1.4844-3.6094 0-1.7891 0.61328-3.1016 1.8438-3.9375 1.2383-0.84375 3.1797-1.2656 5.8281-1.2656h2.8906v-0.39062c0-0.76953-0.30859-1.332-0.92188-1.6875-0.61719-0.36328-1.5703-0.54688-2.8594-0.54688-1.0547 0-2.0312 0.10547-2.9375 0.3125-0.89844 0.21094-1.7305 0.52344-2.5 0.9375v-3.7344c1.0391-0.25 2.0859-0.44141 3.1406-0.57812 1.0625-0.13281 2.125-0.20312 3.1875-0.20312 2.7578 0 4.75 0.54688 5.9688 1.6406 1.2266 1.0859 1.8438 2.8555 1.8438 5.3125z"/>
  </symbol>
  <symbol id="d" overflow="visible">
   <path d="m7.7031-19.656v4.3438h5.0469v3.5h-5.0469v6.5c0 0.71094 0.14062 1.1875 0.42188 1.4375s0.83594 0.375 1.6719 0.375h2.5156v3.5h-4.1875c-1.9375 0-3.3125-0.39844-4.125-1.2031-0.80469-0.8125-1.2031-2.1797-1.2031-4.1094v-6.5h-2.4219v-3.5h2.4219v-4.3438z"/>
  </symbol>
  <symbol id="k" overflow="visible">
   <path d="m12.766-13.078v-8.2031h4.9219v21.281h-4.9219v-2.2188c-0.66797 0.90625-1.4062 1.5703-2.2188 1.9844s-1.7578 0.625-2.8281 0.625c-1.8867 0-3.4336-0.75-4.6406-2.25-1.2109-1.5-1.8125-3.4258-1.8125-5.7812 0-2.3633 0.60156-4.2969 1.8125-5.7969 1.207-1.5 2.7539-2.25 4.6406-2.25 1.0625 0 2 0.21484 2.8125 0.64062 0.82031 0.42969 1.5664 1.0859 2.2344 1.9688zm-3.2188 9.9219c1.0391 0 1.8359-0.37891 2.3906-1.1406 0.55078-0.76953 0.82812-1.8828 0.82812-3.3438 0-1.457-0.27734-2.5664-0.82812-3.3281-0.55469-0.76953-1.3516-1.1562-2.3906-1.1562-1.043 0-1.8398 0.38672-2.3906 1.1562-0.55469 0.76172-0.82812 1.8711-0.82812 3.3281 0 1.4609 0.27344 2.5742 0.82812 3.3438 0.55078 0.76172 1.3477 1.1406 2.3906 1.1406z"/>
  </symbol>
  <symbol id="j" overflow="visible">
   <path d="m10.5-3.1562c1.0508 0 1.8516-0.37891 2.4062-1.1406 0.55078-0.76953 0.82812-1.8828 0.82812-3.3438 0-1.457-0.27734-2.5664-0.82812-3.3281-0.55469-0.76953-1.3555-1.1562-2.4062-1.1562-1.0547 0-1.8594 0.38672-2.4219 1.1562-0.55469 0.77344-0.82812 1.8828-0.82812 3.3281 0 1.4492 0.27344 2.5586 0.82812 3.3281 0.5625 0.77344 1.3672 1.1562 2.4219 1.1562zm-3.25-9.9219c0.67578-0.88281 1.4219-1.5391 2.2344-1.9688 0.82031-0.42578 1.7656-0.64062 2.8281-0.64062 1.8945 0 3.4453 0.75 4.6562 2.25 1.207 1.5 1.8125 3.4336 1.8125 5.7969 0 2.3555-0.60547 4.2812-1.8125 5.7812-1.2109 1.5-2.7617 2.25-4.6562 2.25-1.0625 0-2.0078-0.21094-2.8281-0.625-0.8125-0.42578-1.5586-1.0859-2.2344-1.9844v2.2188h-4.8906v-21.281h4.8906z"/>
  </symbol>
  <symbol id="i" overflow="visible">
   <path d="m0.34375-15.312h4.8906l4.125 10.391 3.5-10.391h4.8906l-6.4375 16.766c-0.64844 1.6953-1.4023 2.8828-2.2656 3.5625-0.86719 0.6875-2 1.0312-3.4062 1.0312h-2.8438v-3.2188h1.5312c0.83203 0 1.4375-0.13672 1.8125-0.40625 0.38281-0.26172 0.67969-0.73047 0.89062-1.4062l0.14062-0.42188z"/>
  </symbol>
  <symbol id="h" overflow="visible">
   <path d="m2.5781-20.406h5.25v7.4375l7.5938-7.4375h6.1094l-9.8281 9.6562 10.844 10.75h-6.5938l-8.125-8.0469v8.0469h-5.25z"/>
  </symbol>
  <symbol id="g" overflow="visible">
   <path d="m17.75-9.3281v9.3281h-4.9219v-7.1094c0-1.3438-0.03125-2.2656-0.09375-2.7656s-0.16797-0.86719-0.3125-1.1094c-0.1875-0.3125-0.44922-0.55469-0.78125-0.73438-0.32422-0.17578-0.69531-0.26562-1.1094-0.26562-1.0234 0-1.8242 0.39844-2.4062 1.1875-0.58594 0.78125-0.875 1.8711-0.875 3.2656v7.5312h-4.8906v-21.281h4.8906v8.2031c0.73828-0.88281 1.5195-1.5391 2.3438-1.9688 0.83203-0.42578 1.75-0.64062 2.75-0.64062 1.7695 0 3.1133 0.54688 4.0312 1.6406 0.91406 1.0859 1.375 2.6562 1.375 4.7188z"/>
  </symbol>
  <symbol id="c" overflow="visible">
   <path d="m9.6406-12.188c-1.0859 0-1.9141 0.39062-2.4844 1.1719-0.57422 0.78125-0.85938 1.9062-0.85938 3.375s0.28516 2.5938 0.85938 3.375c0.57031 0.77344 1.3984 1.1562 2.4844 1.1562 1.0625 0 1.875-0.38281 2.4375-1.1562 0.57031-0.78125 0.85938-1.9062 0.85938-3.375s-0.28906-2.5938-0.85938-3.375c-0.5625-0.78125-1.375-1.1719-2.4375-1.1719zm0-3.5c2.6328 0 4.6914 0.71484 6.1719 2.1406 1.4766 1.418 2.2188 3.3867 2.2188 5.9062 0 2.5117-0.74219 4.4805-2.2188 5.9062-1.4805 1.418-3.5391 2.125-6.1719 2.125-2.6484 0-4.7148-0.70703-6.2031-2.125-1.4922-1.4258-2.2344-3.3945-2.2344-5.9062 0-2.5195 0.74219-4.4883 2.2344-5.9062 1.4883-1.4258 3.5547-2.1406 6.2031-2.1406z"/>
  </symbol>
  <symbol id="f" overflow="visible">
   <path d="m2.3594-15.312h4.8906v15.312h-4.8906zm0-5.9688h4.8906v4h-4.8906z"/>
  </symbol>
  <symbol id="e" overflow="visible">
   <path d="m17.75-9.3281v9.3281h-4.9219v-7.1406c0-1.3203-0.03125-2.2344-0.09375-2.7344s-0.16797-0.86719-0.3125-1.1094c-0.1875-0.3125-0.44922-0.55469-0.78125-0.73438-0.32422-0.17578-0.69531-0.26562-1.1094-0.26562-1.0234 0-1.8242 0.39844-2.4062 1.1875-0.58594 0.78125-0.875 1.8711-0.875 3.2656v7.5312h-4.8906v-15.312h4.8906v2.2344c0.73828-0.88281 1.5195-1.5391 2.3438-1.9688 0.83203-0.42578 1.75-0.64062 2.75-0.64062 1.7695 0 3.1133 0.54688 4.0312 1.6406 0.91406 1.0859 1.375 2.6562 1.375 4.7188z"/>
  </symbol>
  <symbol id="s" overflow="visible">
   <path d="m12.422-21.281v3.2188h-2.7031c-0.6875 0-1.1719 0.125-1.4531 0.375-0.27344 0.25-0.40625 0.6875-0.40625 1.3125v1.0625h4.1875v3.5h-4.1875v11.812h-4.8906v-11.812h-2.4375v-3.5h2.4375v-1.0625c0-1.6641 0.46094-2.8984 1.3906-3.7031 0.92578-0.80078 2.3672-1.2031 4.3281-1.2031z"/>
  </symbol>
  <symbol id="r" overflow="visible">
   <path d="m16.547-12.766c0.61328-0.94531 1.3477-1.6719 2.2031-2.1719 0.85156-0.5 1.7891-0.75 2.8125-0.75 1.7578 0 3.0977 0.54688 4.0156 1.6406 0.92578 1.0859 1.3906 2.6562 1.3906 4.7188v9.3281h-4.9219v-7.9844-0.35938c0.007813-0.13281 0.015625-0.32031 0.015625-0.5625 0-1.082-0.16406-1.8633-0.48438-2.3438-0.3125-0.48828-0.82422-0.73438-1.5312-0.73438-0.92969 0-1.6484 0.38672-2.1562 1.1562-0.51172 0.76172-0.77344 1.8672-0.78125 3.3125v7.5156h-4.9219v-7.9844c0-1.6953-0.14844-2.7852-0.4375-3.2656-0.29297-0.48828-0.8125-0.73438-1.5625-0.73438-0.9375 0-1.6641 0.38672-2.1719 1.1562-0.51172 0.76172-0.76562 1.8594-0.76562 3.2969v7.5312h-4.9219v-15.312h4.9219v2.2344c0.60156-0.86328 1.2891-1.5156 2.0625-1.9531 0.78125-0.4375 1.6406-0.65625 2.5781-0.65625 1.0625 0 2 0.25781 2.8125 0.76562 0.8125 0.51172 1.4258 1.2305 1.8438 2.1562z"/>
  </symbol>
  <symbol id="q" overflow="visible">
   <path d="m2.5781-20.406h5.875l7.4219 14v-14h4.9844v20.406h-5.875l-7.4219-14v14h-4.9844z"/>
  </symbol>
  <symbol id="p" overflow="visible">
   <path d="m2.1875-5.9688v-9.3438h4.9219v1.5312c0 0.83594-0.007813 1.875-0.015625 3.125-0.011719 1.25-0.015625 2.0859-0.015625 2.5 0 1.2422 0.03125 2.1328 0.09375 2.6719 0.070313 0.54297 0.17969 0.93359 0.32812 1.1719 0.20703 0.32422 0.47266 0.57422 0.79688 0.75 0.32031 0.16797 0.69141 0.25 1.1094 0.25 1.0195 0 1.8203-0.39062 2.4062-1.1719 0.58203-0.78125 0.875-1.8672 0.875-3.2656v-7.5625h4.8906v15.312h-4.8906v-2.2188c-0.74219 0.89844-1.5234 1.5586-2.3438 1.9844-0.82422 0.41406-1.7344 0.625-2.7344 0.625-1.7617 0-3.1055-0.53906-4.0312-1.625-0.92969-1.082-1.3906-2.6602-1.3906-4.7344z"/>
  </symbol>
  <symbol id="o" overflow="visible">
   <path d="m2.5781-20.406h8.7344c2.5938 0 4.582 0.57812 5.9688 1.7344 1.3945 1.1484 2.0938 2.7891 2.0938 4.9219 0 2.1367-0.69922 3.7812-2.0938 4.9375-1.3867 1.1562-3.375 1.7344-5.9688 1.7344h-3.4844v7.0781h-5.25zm5.25 3.8125v5.7031h2.9219c1.0195 0 1.8047-0.25 2.3594-0.75 0.5625-0.5 0.84375-1.2031 0.84375-2.1094 0-0.91406-0.28125-1.6172-0.84375-2.1094-0.55469-0.48828-1.3398-0.73438-2.3594-0.73438z"/>
  </symbol>
  <symbol id="n" overflow="visible">
   <path d="m2.3594-15.312h4.8906v15.031c0 2.0508-0.49609 3.6172-1.4844 4.7031-0.98047 1.082-2.4062 1.625-4.2812 1.625h-2.4219v-3.2188h0.85938c0.92578 0 1.5625-0.21094 1.9062-0.625 0.35156-0.41797 0.53125-1.2461 0.53125-2.4844zm0-5.9688h4.8906v4h-4.8906z"/>
  </symbol>
  <symbol id="m" overflow="visible">
   <path d="m14.719-14.828v3.9844c-0.65625-0.45703-1.3242-0.79688-2-1.0156-0.66797-0.21875-1.3594-0.32812-2.0781-0.32812-1.3672 0-2.4336 0.40234-3.2031 1.2031-0.76172 0.79297-1.1406 1.9062-1.1406 3.3438 0 1.4297 0.37891 2.543 1.1406 3.3438 0.76953 0.79297 1.8359 1.1875 3.2031 1.1875 0.75781 0 1.4844-0.10938 2.1719-0.32812 0.6875-0.22656 1.3203-0.56641 1.9062-1.0156v4c-0.76172 0.28125-1.5391 0.48828-2.3281 0.625-0.78125 0.14453-1.5742 0.21875-2.375 0.21875-2.7617 0-4.9219-0.70703-6.4844-2.125-1.5547-1.4141-2.3281-3.3828-2.3281-5.9062 0-2.5312 0.77344-4.5039 2.3281-5.9219 1.5625-1.4141 3.7227-2.125 6.4844-2.125 0.80078 0 1.5938 0.074219 2.375 0.21875 0.78125 0.13672 1.5547 0.35156 2.3281 0.64062z"/>
  </symbol>
 </defs>
 <g>
  <path d="m162.18 473.67c0-3.9141 3.1719-7.0859 7.0859-7.0859s7.082 3.1719 7.082 7.0859c0.070313 3.7852 1.7812 7.3594 4.6875 9.7891 3.5352 2.8984 7.9648 4.4844 12.539 4.4844 4.5703 0 9-1.5859 12.535-4.4844 2.9062-2.4297 4.6172-6.0039 4.6875-9.7891 0-10.781-9.1719-12.684-18.316-14.559-14.762-3.0586-29.477-6.1094-29.477-28.125h-0.003906c0.070312-7.8711 3.5547-15.32 9.5547-20.418 4.207-3.6523 9.2891-6.1602 14.75-7.2812v-6.7188c0-3.9141 3.1719-7.0859 7.082-7.0859 3.9141 0 7.0859 3.1719 7.0859 7.0859v6.7188c5.457 1.1211 10.539 3.6289 14.75 7.2812 5.9961 5.0977 9.4805 12.547 9.5508 20.418 0 3.9102-3.168 7.082-7.082 7.082-3.9141 0-7.0859-3.1719-7.0859-7.082-0.066407-3.7891-1.7773-7.3594-4.6797-9.7891-3.5352-2.9023-7.9648-4.4844-12.539-4.4844-4.5703 0-9.0039 1.582-12.539 4.4844-2.9023 2.4297-4.6094 6-4.6797 9.7891 0 10.527 9.0547 12.402 18.133 14.285 14.812 3.0742 29.68 6.1602 29.68 28.422v-0.003906c-0.070313 7.8711-3.5586 15.324-9.5547 20.418-3.9922 3.4766-8.7812 5.918-13.938 7.1133v6.875c0 3.9141-3.1719 7.0859-7.0859 7.0859-3.9102 0-7.082-3.1719-7.082-7.0859v-6.5547c-5.7656-1.0391-11.145-3.6133-15.566-7.4531-6-5.0977-9.4844-12.551-9.5547-20.418zm195.96-389.2v-0.003906c0-3.9102 3.1719-7.082 7.0859-7.082 3.9102 0 7.082 3.1719 7.082 7.082v4.9648c5.3164 1.2422 10.199 3.8867 14.145 7.6602 5.6992 5.3867 8.9375 12.875 8.9609 20.719 0 3.9141-3.1719 7.0859-7.082 7.0859-3.9141 0-7.0859-3.1719-7.0859-7.0859-0.015626-3.9961-1.6719-7.8125-4.582-10.555-3.1055-2.8867-7.1875-4.4883-11.43-4.4883-4.2383 0-8.3203 1.6016-11.43 4.4883-2.918 2.7344-4.5742 6.5547-4.5742 10.555s1.6562 7.8203 4.5742 10.555c3.0898 2.9141 7.1875 4.5195 11.43 4.4805 7.9062-0.019531 15.512 3.0156 21.23 8.4727 5.7109 5.3867 8.9492 12.891 8.9492 20.742 0 7.8477-3.2383 15.352-8.9492 20.738-3.9453 3.7695-8.8281 6.4141-14.145 7.6562v4.9844c0 3.9102-3.1719 7.082-7.0859 7.082-3.9102 0-7.082-3.1719-7.082-7.082v-4.9648c-5.3125-1.2383-10.199-3.8828-14.141-7.6523-5.6953-5.3906-8.9336-12.879-8.9609-20.723 0-3.9102 3.1719-7.082 7.0859-7.082 3.9102 0 7.082 3.1719 7.082 7.082 0.011718 4 1.668 7.8164 4.5781 10.559 3.1055 2.8828 7.1875 4.4844 11.43 4.4844 4.2383 0 8.3203-1.6016 11.43-4.4844 2.9219-2.7344 4.5781-6.5547 4.5781-10.559 0-4-1.6562-7.8203-4.5781-10.555-3.0898-2.9141-7.1875-4.5156-11.43-4.4805-7.9062 0.019532-15.508-3.0156-21.227-8.4727-5.7109-5.3867-8.9453-12.891-8.9453-20.738 0-7.8516 3.2344-15.355 8.9453-20.742 3.9414-3.7734 8.8281-6.418 14.141-7.6602zm227.57 326.57v-81.629h-89.223c-8.4219 0.03125-16.488 3.3945-22.445 9.3477-5.9531 5.9531-9.3125 14.02-9.3477 22.441v18.055c0.035156 8.4219 3.3984 16.484 9.3516 22.438 5.9531 5.957 14.02 9.3164 22.441 9.3477zm-141.32-350.25c-27.555-27.617-67.504-38.898-105.43-29.773-37.934 9.1211-68.383 37.332-80.367 74.461-11.984 37.129-3.7773 77.816 21.66 107.4h169.95c18.367-21.422 27.973-48.984 26.898-77.18-1.0781-28.199-12.758-54.949-32.707-74.906zm44.016 106.3h12.039v45.781h-32.316c9.7578-13.75 16.652-29.316 20.277-45.781zm25.867 198.62c1.9414 1.9375 2.2422 4.9766 0.71875 7.2578-1.5234 2.2773-4.4453 3.1641-6.9766 2.1172-2.5352-1.0508-3.9727-3.7422-3.4375-6.4336 0.53906-2.6875 2.8984-4.625 5.6406-4.6211 1.5234 0 2.9805 0.60156 4.0547 1.6797zm-4.0547-15.848c6.1953-0.007813 12.039 2.8633 15.812 7.7734 3.7773 4.9062 5.0547 11.293 3.457 17.273-1.5977 5.9844-5.8867 10.883-11.605 13.258s-12.219 1.9531-17.582-1.1406-8.9844-8.5039-9.7969-14.645c-0.80859-6.1367 1.2812-12.305 5.6602-16.684 3.7266-3.7422 8.793-5.8438 14.074-5.8359zm-259.89 46.105c-17.52-17.523-42.188-25.898-66.754-22.668-24.566 3.2305-46.23 17.707-58.617 39.16-12.391 21.457-14.098 47.457-4.6172 70.348s29.07 40.07 53.004 46.484c23.93 6.4102 49.484 1.3281 69.141-13.754 19.656-15.086 31.18-38.453 31.18-63.23 0.027344-21.137-8.3711-41.414-23.336-56.34zm-16.727-28.762c-0.375-2.0625-0.67188-4.1133-0.89062-6.1602-0.35156-3.2734-0.52344-6.5625-0.51562-9.8555 0.03125-26.191 11.406-51.086 31.188-68.258 19.777-17.168 46.023-24.93 71.961-21.277 25.938 3.6523 49.02 18.355 63.293 40.32 14.27 21.961 18.328 49.027 11.129 74.211-7.1992 25.184-24.953 46.016-48.676 57.113-23.727 11.102-51.094 11.379-75.039 0.76953-5.8555-29.352-25.328-54.164-52.449-66.824zm-39.621-8.7461c8.3047-0.007812 16.574 1.0859 24.59 3.2539-3.0391-30.281 7.25-60.383 28.184-82.465 20.934-22.086 50.445-33.965 80.844-32.547 30.395 1.418 58.672 15.996 77.457 39.934 18.789 23.938 26.227 54.867 20.383 84.73-5.8477 29.863-24.402 55.703-50.828 70.793-26.43 15.086-58.113 17.926-86.801 7.7734 0 0.78906 0.027344 1.5781 0.027344 2.375 0.019531 12.801-2.5898 25.465-7.6641 37.215h305.54v-64.316h-89.223c-12.18-0.03125-23.852-4.8828-32.465-13.496s-13.465-20.285-13.496-32.465v-18.055c0.03125-12.18 4.8828-23.852 13.496-32.465 8.6133-8.6094 20.285-13.461 32.465-13.492h89.223v-88.195h-361.79c-3.9141 0-7.082-3.1719-7.082-7.0859 0-3.9102 3.168-7.082 7.082-7.082h38.406c-9.7578-13.75-16.652-29.316-20.277-45.781h-29.277c-11.055 0.039063-21.648 4.4453-29.465 12.262s-12.227 18.41-12.262 29.465v152.47c7.5078-1.8789 15.219-2.8164 22.961-2.8008zm129.28-48.289c5.375-0.082032 10.598 1.7891 14.699 5.2695 3.4727 2.9023 5.5156 7.168 5.5977 11.691 0 3.9141 3.1719 7.0859 7.0859 7.0859 3.9141 0 7.0859-3.1719 7.0859-7.0859-0.082031-8.6055-3.8945-16.75-10.453-22.32-4.8086-4.1758-10.648-6.9922-16.91-8.1484v-8.2734c0-3.9102-3.1719-7.082-7.0859-7.082-3.9102 0-7.082 3.1719-7.082 7.082v8.2656c-6.2656 1.1602-12.105 3.9727-16.918 8.1484-6.5547 5.5742-10.367 13.719-10.449 22.324 0 24.078 16.238 27.441 32.48 30.801 10.641 2.2383 21.336 4.4297 21.336 17.289v-0.003906c-0.085938 4.5234-2.1289 8.7891-5.6016 11.691-4.1406 3.4062-9.3359 5.2695-14.699 5.2695-5.3633 0-10.559-1.8633-14.699-5.2695-3.4727-2.9023-5.5156-7.168-5.6016-11.691 0-3.9141-3.1719-7.0859-7.082-7.0859-3.9141 0-7.0859 3.1719-7.0859 7.0859 0.078124 8.6055 3.8945 16.75 10.449 22.32 5.0508 4.3828 11.23 7.2617 17.832 8.3125v8.0977c0 3.9102 3.1719 7.082 7.082 7.082 3.9141 0 7.0859-3.1719 7.0859-7.082v-8.4531c5.9219-1.25 11.426-3.9922 15.992-7.9609 6.5703-5.5703 10.395-13.727 10.473-22.34 0-24.344-16.359-27.738-32.68-31.121-10.574-2.1953-21.125-4.3867-21.125-16.957v0.003906c0.082032-4.5273 2.125-8.793 5.6016-11.695 4.0977-3.4766 9.3203-5.3477 14.699-5.2695z" fill-rule="evenodd"/>
 </g>
</svg>
