<?xml version="1.0" encoding="UTF-8"?>
<svg width="700pt" height="700pt" version="1.1" viewBox="0 0 700 700" xmlns="http://www.w3.org/2000/svg" xmlns:xlink="http://www.w3.org/1999/xlink">
 <defs>
  <symbol id="n" overflow="visible">
   <path d="m29.312-1.75c-1.5117 0.78125-3.0898 1.3711-4.7344 1.7656-1.6367 0.40625-3.3398 0.60938-5.1094 0.60938-5.3125 0-9.5273-1.4844-12.641-4.4531-3.1055-2.9688-4.6562-7-4.6562-12.094s1.5508-9.125 4.6562-12.094c3.1133-2.9688 7.3281-4.4531 12.641-4.4531 1.7695 0 3.4727 0.19922 5.1094 0.59375 1.6445 0.39844 3.2227 0.99219 4.7344 1.7812v6.5938c-1.5312-1.0391-3.0391-1.8008-4.5156-2.2812-1.4805-0.48828-3.0391-0.73438-4.6719-0.73438-2.9375 0-5.2461 0.94531-6.9219 2.8281-1.6797 1.875-2.5156 4.4648-2.5156 7.7656 0 3.293 0.83594 5.8828 2.5156 7.7656 1.6758 1.875 3.9844 2.8125 6.9219 2.8125 1.6328 0 3.1914-0.23828 4.6719-0.71875 1.4766-0.48828 2.9844-1.2539 4.5156-2.2969z"/>
  </symbol>
  <symbol id="h" overflow="visible">
   <path d="m21.453-17.406c-0.67969-0.3125-1.3516-0.53906-2.0156-0.6875-0.65625-0.15625-1.3203-0.23438-1.9844-0.23438-1.9688 0-3.4844 0.63281-4.5469 1.8906-1.0547 1.2617-1.5781 3.0703-1.5781 5.4219v11.016h-7.6562v-23.922h7.6562v3.9219c0.97656-1.5625 2.1016-2.7031 3.375-3.4219 1.2812-0.71875 2.8125-1.0781 4.5938-1.0781 0.25 0 0.52344 0.011719 0.82812 0.03125 0.30078 0.023438 0.73438 0.070312 1.2969 0.14062z"/>
  </symbol>
  <symbol id="b" overflow="visible">
   <path d="m27.562-12.031v2.1875h-17.891c0.1875 1.793 0.83203 3.1367 1.9375 4.0312 1.1133 0.89844 2.6719 1.3438 4.6719 1.3438 1.6016 0 3.25-0.23438 4.9375-0.70312 1.6875-0.47656 3.4219-1.2031 5.2031-2.1719v5.8906c-1.8047 0.6875-3.6094 1.2031-5.4219 1.5469-1.8125 0.35156-3.6211 0.53125-5.4219 0.53125-4.3359 0-7.7031-1.0977-10.109-3.2969-2.3984-2.207-3.5938-5.2969-3.5938-9.2656 0-3.9062 1.1758-6.9727 3.5312-9.2031 2.3633-2.2383 5.6094-3.3594 9.7344-3.3594 3.7578 0 6.7695 1.1367 9.0312 3.4062 2.2578 2.2617 3.3906 5.2812 3.3906 9.0625zm-7.8594-2.5312c0-1.457-0.42969-2.6289-1.2812-3.5156-0.84375-0.89453-1.9492-1.3438-3.3125-1.3438-1.4922 0-2.6992 0.41797-3.625 1.25-0.91797 0.83594-1.4922 2.0391-1.7188 3.6094z"/>
  </symbol>
  <symbol id="g" overflow="visible">
   <path d="m14.391-10.766c-1.5938 0-2.793 0.27344-3.5938 0.8125-0.80469 0.54297-1.2031 1.3398-1.2031 2.3906 0 0.96875 0.32031 1.7305 0.96875 2.2812 0.64453 0.54297 1.5469 0.8125 2.7031 0.8125 1.4375 0 2.6445-0.51562 3.625-1.5469 0.98828-1.0312 1.4844-2.3203 1.4844-3.875v-0.875zm11.688-2.8906v13.656h-7.7031v-3.5469c-1.0312 1.4492-2.1875 2.5078-3.4688 3.1719s-2.8398 1-4.6719 1c-2.4805 0-4.4961-0.72266-6.0469-2.1719-1.543-1.4453-2.3125-3.3203-2.3125-5.625 0-2.8125 0.96094-4.8672 2.8906-6.1719 1.9375-1.3125 4.9688-1.9688 9.0938-1.9688h4.5156v-0.60938c0-1.207-0.48047-2.0938-1.4375-2.6562-0.94922-0.5625-2.4375-0.84375-4.4688-0.84375-1.6367 0-3.1562 0.16797-4.5625 0.5-1.4062 0.32422-2.7188 0.8125-3.9375 1.4688v-5.8281c1.6445-0.40625 3.2891-0.70703 4.9375-0.90625 1.6562-0.20703 3.3047-0.3125 4.9531-0.3125 4.3203 0 7.4375 0.85547 9.3438 2.5625 1.9141 1.6992 2.875 4.4609 2.875 8.2812z"/>
  </symbol>
  <symbol id="f" overflow="visible">
   <path d="m12.031-30.719v6.7969h7.875v5.4688h-7.875v10.141c0 1.1172 0.21875 1.8711 0.65625 2.2656 0.4375 0.38672 1.3125 0.57812 2.625 0.57812h3.9375v5.4688h-6.5625c-3.0234 0-5.1641-0.62891-6.4219-1.8906-1.2617-1.2578-1.8906-3.3984-1.8906-6.4219v-10.141h-3.7969v-5.4688h3.7969v-6.7969z"/>
  </symbol>
  <symbol id="a" overflow="visible">
   <path d="m19.953-20.422v-12.812h7.6875v33.234h-7.6875v-3.4531c-1.0547 1.4062-2.2148 2.4375-3.4844 3.0938-1.2734 0.65625-2.7422 0.98438-4.4062 0.98438-2.9492 0-5.3711-1.1719-7.2656-3.5156-1.8867-2.3438-2.8281-5.3594-2.8281-9.0469s0.94141-6.7031 2.8281-9.0469c1.8945-2.3438 4.3164-3.5156 7.2656-3.5156 1.6562 0 3.1172 0.33594 4.3906 1 1.2812 0.65625 2.4453 1.6836 3.5 3.0781zm-5.0469 15.484c1.6445 0 2.8945-0.59766 3.75-1.7969 0.86328-1.1953 1.2969-2.9297 1.2969-5.2031 0-2.2812-0.43359-4.0195-1.2969-5.2188-0.85547-1.1953-2.1055-1.7969-3.75-1.7969-1.625 0-2.8711 0.60156-3.7344 1.7969-0.85547 1.1992-1.2812 2.9375-1.2812 5.2188 0 2.2734 0.42578 4.0078 1.2812 5.2031 0.86328 1.1992 2.1094 1.7969 3.7344 1.7969z"/>
  </symbol>
  <symbol id="e" overflow="visible">
   <path d="m16.406-4.9375c1.6328 0 2.8828-0.59766 3.75-1.7969 0.86328-1.1953 1.2969-2.9297 1.2969-5.2031 0-2.2812-0.43359-4.0195-1.2969-5.2188-0.86719-1.1953-2.1172-1.7969-3.75-1.7969-1.6367 0-2.8906 0.60547-3.7656 1.8125-0.875 1.1992-1.3125 2.9336-1.3125 5.2031 0 2.2617 0.4375 3.9961 1.3125 5.2031 0.875 1.1992 2.1289 1.7969 3.7656 1.7969zm-5.0781-15.484c1.0508-1.3945 2.2188-2.4219 3.5-3.0781 1.2812-0.66406 2.7539-1 4.4219-1 2.9453 0 5.3672 1.1719 7.2656 3.5156 1.8945 2.3438 2.8438 5.3594 2.8438 9.0469s-0.94922 6.7031-2.8438 9.0469c-1.8984 2.3438-4.3203 3.5156-7.2656 3.5156-1.668 0-3.1406-0.33594-4.4219-1s-2.4492-1.6914-3.5-3.0781v3.4531h-7.6562v-33.234h7.6562z"/>
  </symbol>
  <symbol id="d" overflow="visible">
   <path d="m0.53125-23.922h7.6562l6.4219 16.234 5.4688-16.234h7.6562l-10.062 26.188c-1.0117 2.6641-2.1953 4.5234-3.5469 5.5781-1.3438 1.0625-3.1211 1.5938-5.3281 1.5938h-4.4219v-5.0156h2.3906c1.3008 0 2.2422-0.21094 2.8281-0.625 0.59375-0.40625 1.0547-1.1484 1.3906-2.2188l0.20312-0.65625z"/>
  </symbol>
  <symbol id="c" overflow="visible">
   <path d="m4.0156-31.891h22.203v6.2188h-13.984v5.9375h13.141v6.2188h-13.141v7.2969h14.453v6.2188h-22.672z"/>
  </symbol>
  <symbol id="m" overflow="visible">
   <path d="m1.5312-23.922h7.4375l4.0156 16.484 4.0469-16.484h6.375l4.0156 16.312 4.0469-16.312h7.4375l-6.3125 23.922h-8.3438l-4.0469-16.453-4.0156 16.453h-8.3438z"/>
  </symbol>
  <symbol id="l" overflow="visible">
   <path d="m3.6719-23.922h7.6562v23.922h-7.6562zm0-9.3125h7.6562v6.2344h-7.6562z"/>
  </symbol>
  <symbol id="k" overflow="visible">
   <path d="m27.734-14.562v14.562h-7.7031v-11.156c0-2.0625-0.046875-3.4844-0.14062-4.2656-0.085937-0.78125-0.24219-1.3594-0.46875-1.7344-0.30469-0.5-0.71094-0.88281-1.2188-1.1562-0.51172-0.28125-1.0938-0.42188-1.75-0.42188-1.5938 0-2.8516 0.61719-3.7656 1.8438-0.90625 1.2305-1.3594 2.9375-1.3594 5.125v11.766h-7.6562v-23.922h7.6562v3.5c1.1445-1.3945 2.3633-2.4219 3.6562-3.0781 1.3008-0.66406 2.7383-1 4.3125-1 2.7578 0 4.8516 0.85156 6.2812 2.5469 1.4375 1.6875 2.1562 4.1523 2.1562 7.3906z"/>
  </symbol>
  <symbol id="j" overflow="visible">
   <path d="m4.0156-31.891h13.656c4.0508 0 7.1602 0.90234 9.3281 2.7031 2.1758 1.8047 3.2656 4.3711 3.2656 7.7031 0 3.3438-1.0898 5.918-3.2656 7.7188-2.168 1.8047-5.2773 2.7031-9.3281 2.7031h-5.4375v11.062h-8.2188zm8.2188 5.9531v8.9062h4.5625c1.5938 0 2.8203-0.38281 3.6875-1.1562 0.875-0.78125 1.3125-1.8789 1.3125-3.2969 0-1.4258-0.4375-2.5234-1.3125-3.2969-0.86719-0.76953-2.0938-1.1562-3.6875-1.1562z"/>
  </symbol>
  <symbol id="i" overflow="visible">
   <path d="m4.0156-31.891h10.469l7.2656 17.062 7.2969-17.062h10.453v31.891h-7.7812v-23.328l-7.3438 17.203h-5.2188l-7.3438-17.203v23.328h-7.7969z"/>
  </symbol>
 </defs>
 <g>
  <path d="m595.42 270.65c-3.8516-2.5312-11.66-5.1641-40.156-7.5625 4.7148-13.941 9.1523-29.137 12.715-43.902 17.191-61.281 26.004-185.71-23.926-197.37-35.148-9.7891-57.727 42.855-76.949 104.1-12.578-25.832-29.414-47.41-53.059-40.828-43.438 9.7266-43.262 110.88-29.27 172.92-76.48-0.35547-173.21 1.4219-225.61 4.7422-49.949 2.9805-53.887 6.0664-56.883 8.418-22.648 18.66-20.285 77.602 13.832 84.223 1.4062 34.137 4.6133 72.07 11.312 104.28-5.0703 3.2266-10.211 5.0664-15.367 5.0664-4.832 0-8.75 3.9141-8.75 8.75 1.3789 14.215 19.816 7.9141 28.277 3.8477 6.1328 22.473 14.469 40.539 25.777 49.934 9.8164 8.0664 100.32 12.102 190.89 12.102 90.637 0 181.33-4.043 191.17-12.125 11.301-9.3906 19.633-27.473 25.762-49.969 8.4648 4.1016 27.008 10.473 28.398-3.7891 0-4.8359-3.918-8.75-8.75-8.75-5.1953 0-10.379-1.8672-15.488-5.1445 6.6797-32.16 9.8828-70.023 11.293-104.12 36.742-5.2695 41.914-66.727 14.781-84.828zm-56.039-231.97c15.43 4.2656 28.363 36.074 24.191 97.488l-37.895-10.527c-11.027-2.9844-15.699 13.742-4.6836 16.867l40.945 11.375c-1.793 16.473-4.7617 33.867-8.875 52.012l-37.688-10.469c-4.6484-1.2656-9.4727 1.4453-10.77 6.0938-1.293 4.6562 1.4297 9.4766 6.0898 10.773l38.246 10.625c-3.2422 13.074-7.4961 26.82-11.617 38.875-8.3711-0.50781-16.898-0.92188-25.562-1.3086-10.359-36.871-20.508-73.895-33.965-109.69 11.273-37.988 36.113-119.26 61.582-112.11zm-120.62 63.258c35.461-5.0781 63.461 124.14 74.66 157.91-26.16-0.65625-63.422-1.3672-90.812-1.7617-2.9023-14.133-4.918-27.746-6.3555-40.898l40.871-11.352c4.6562-1.2969 7.3828-6.1172 6.0898-10.773-1.2891-4.6484-6.1172-7.3555-10.77-6.0938l-37.887 10.523c-4.168-61.395 8.7812-93.234 24.203-97.555zm-276.8 259.42c13.727 2.3203 27.754 3.9102 41.793 5.2695-10.902 29.895-25.305 60.234-41.121 79.102-4.2383-23.852-7.2773-52.793-8.8203-85.848 2.6328 0.5 5.2891 1 8.1484 1.4766zm386.75 152.03c-25.918 11.039-334.73 11.031-360.65 0.007813-8.2852-7.25-15.426-23.508-21.102-46.863 24.699-22.609 43.316-65.258 54.855-98.277 95.883 6.6602 198.16 6.5195 293.18-0.26953 11.516 33.004 30.125 75.742 54.836 98.441-5.6758 23.438-12.828 39.73-21.121 46.961zm11.73-150.05c7.5469-1.0352 15.207-2.2148 22.52-3.6328-1.543 33.062-4.5742 62.016-8.8047 85.883-15.805-18.918-30.191-49.266-41.074-79.148 9.3867-0.92188 18.332-1.8633 27.359-3.1016zm45.445-28.859c-19.059 9.7266-52.996 12.086-78.656 14.91-2.043-6.3164-3.9102-12.504-5.5703-18.441h7.5391c11.43-0.042968 11.449-17.453 0-17.5h-37.824c-11.43 0.046876-11.453 17.453 0 17.5h12.152c1.3242 4.9023 3.2617 11.742 5.8125 19.902-88.461 6.5156-201.55 6.0391-281.85 0.24219 2.5859-8.2617 4.5508-15.195 5.8867-20.145h12.152c11.43-0.042968 11.453-17.453 0-17.5h-37.824c-11.434 0.046876-11.449 17.453 0 17.5h7.5391c-1.6797 6.0078-3.5742 12.273-5.6445 18.668-25.004-2.8281-59.277-5.0938-76.328-14.609-10.695-7.6641-10.703-41.602-0.53906-49.758 60.504-9.3906 153.41-8.6445 242.66-9.7422 59.562-0.09375 134.2 0.81641 187.38 4.1797h0.007813c35.621 2.4453 42.211 5.1445 43.105 5.6328 11.898 6.6211 11.902 42.539 0 49.16z"/>
  <path d="m140.01 207.17c-0.23828 0.51953 6.5156 30.848 6.4805 31.375 2.4336 11.227 19.43 7.5781 17.125-3.5898l-4.6758-22.316 171.25-35.867 11.855 56.773c2.3984 11.203 19.418 7.6328 17.133-3.5742l-13.504-64.656c-0.019531-0.14453-0.0625-0.27734-0.085937-0.41797-0.26563-1.3125-0.79688-2.5508-1.5469-3.6836l-33.172-44.914-8.5781-40.961c-0.875-4.6094-5.8008-7.8555-10.359-6.7656l-141.31 29.598c-4.6133 0.86328-7.8281 5.7773-6.7656 10.355 0-0.003906 8.5781 40.941 8.5781 40.941l-12.371 54.461c-0.125 1.0703-0.23438 2.1758-0.050782 3.2422zm28.664-50.207 130.31-27.301 22.867 30.961-161.71 33.871zm118.28-69.477 5.3828 25.695c-30.953 6.4844-93.238 19.531-124.18 26.012l-5.3789-25.695z"/>

 </g>
</svg>
