<?xml version="1.0" encoding="UTF-8"?>
<svg width="700pt" height="700pt" version="1.1" viewBox="0 0 700 700" xmlns="http://www.w3.org/2000/svg" xmlns:xlink="http://www.w3.org/1999/xlink">
 <defs>
  <symbol id="f" overflow="visible">
   <path d="m39.078-2.3281c-2.0117 1.043-4.1094 1.8281-6.2969 2.3594s-4.4648 0.79688-6.8281 0.79688c-7.0859 0-12.699-1.9766-16.844-5.9375-4.1367-3.957-6.2031-9.3281-6.2031-16.109 0-6.7891 2.0664-12.164 6.2031-16.125 4.1445-3.9688 9.7578-5.9531 16.844-5.9531 2.3633 0 4.6406 0.26562 6.8281 0.79688s4.2852 1.3242 6.2969 2.375v8.7969c-2.0312-1.3828-4.0391-2.3984-6.0156-3.0469-1.9688-0.64453-4.0469-0.96875-6.2344-0.96875-3.9062 0-6.9844 1.2578-9.2344 3.7656-2.2422 2.5-3.3594 5.9531-3.3594 10.359 0 4.3867 1.1172 7.8359 3.3594 10.344 2.25 2.5 5.3281 3.75 9.2344 3.75 2.1875 0 4.2656-0.32031 6.2344-0.96875 1.9766-0.64453 3.9844-1.6602 6.0156-3.0469z"/>
  </symbol>
  <symbol id="e" overflow="visible">
   <path d="m16.031-40.953v9.0625h10.516v7.2812h-10.516v13.531c0 1.4805 0.28906 2.4805 0.875 3 0.59375 0.52344 1.7656 0.78125 3.5156 0.78125h5.2344v7.2969h-8.7344c-4.0312 0-6.8867-0.83594-8.5625-2.5156-1.6797-1.6875-2.5156-4.5391-2.5156-8.5625v-13.531h-5.0781v-7.2812h5.0781v-9.0625z"/>
  </symbol>
  <symbol id="d" overflow="visible">
   <path d="m26.594-27.234v-17.078h10.266v44.312h-10.266v-4.6094c-1.3984 1.875-2.9453 3.25-4.6406 4.125-1.6875 0.875-3.6406 1.3125-5.8594 1.3125-3.9297 0-7.1562-1.5625-9.6875-4.6875-2.5234-3.125-3.7812-7.1445-3.7812-12.062 0-4.9141 1.2578-8.9375 3.7812-12.062 2.5312-3.125 5.7578-4.6875 9.6875-4.6875 2.1953 0 4.1445 0.44531 5.8438 1.3281 1.707 0.88672 3.2578 2.2578 4.6562 4.1094zm-6.7188 20.656c2.1875 0 3.8516-0.79688 5-2.3906 1.1445-1.5938 1.7188-3.9102 1.7188-6.9531 0-3.0391-0.57422-5.3594-1.7188-6.9531-1.1484-1.5938-2.8125-2.3906-5-2.3906-2.168 0-3.8242 0.79688-4.9688 2.3906-1.1484 1.5938-1.7188 3.9141-1.7188 6.9531 0 3.043 0.57031 5.3594 1.7188 6.9531 1.1445 1.5938 2.8008 2.3906 4.9688 2.3906z"/>
  </symbol>
  <symbol id="c" overflow="visible">
   <path d="m21.875-6.5781c2.1758 0 3.8359-0.79688 4.9844-2.3906 1.1562-1.5938 1.7344-3.9102 1.7344-6.9531 0-3.0391-0.57812-5.3594-1.7344-6.9531-1.1484-1.5938-2.8086-2.3906-4.9844-2.3906-2.1875 0-3.8672 0.80469-5.0312 2.4062-1.168 1.6055-1.75 3.918-1.75 6.9375 0 3.0234 0.58203 5.3359 1.75 6.9375 1.1641 1.6055 2.8438 2.4062 5.0312 2.4062zm-6.7812-20.656c1.4062-1.8516 2.9609-3.2227 4.6719-4.1094 1.707-0.88281 3.6719-1.3281 5.8906-1.3281 3.9375 0 7.1641 1.5625 9.6875 4.6875 2.5195 3.125 3.7812 7.1484 3.7812 12.062 0 4.918-1.2617 8.9375-3.7812 12.062-2.5234 3.125-5.75 4.6875-9.6875 4.6875-2.2188 0-4.1836-0.44531-5.8906-1.3281-1.7109-0.88281-3.2656-2.2539-4.6719-4.1094v4.6094h-10.188v-44.312h10.188z"/>
  </symbol>
  <symbol id="b" overflow="visible">
   <path d="m1.7344-42.516h10.516l7.3438 30.891 7.2969-30.891h10.562l7.2969 30.891 7.3438-30.891h10.422l-10.031 42.516h-12.641l-7.7188-32.328-7.625 32.328h-12.656z"/>
  </symbol>
  <symbol id="a" overflow="visible">
   <path d="m4.9062-44.312h10.188v24.125l11.734-11.703h11.844l-15.578 14.625 16.812 17.266h-12.359l-12.453-13.297v13.297h-10.188z"/>
  </symbol>
 </defs>
 <g>
  <path d="m128.36 256.67v221.67h-46.668c-6.4414 0-11.668 5.2266-11.668 11.668 0 6.4375 5.2266 11.664 11.668 11.664h536.67c6.4414 0 11.668-5.2266 11.668-11.664 0-6.4414-5.2266-11.668-11.668-11.668h-46.664v-221.67h23.332c3.5703 0 6.9297-1.6328 9.1484-4.4102 2.2148-2.8008 3.0312-6.4414 2.2148-9.918l-40.902-175.26-0.70312-1.957-0.62891-1.1914c-0.48828-0.79297-1.0508-1.5156-1.7031-2.1719l-1.75-1.4453-0.37109-0.23438c-0.77344-0.46484-1.6133-0.86328-2.4766-1.1641l-2.2383-0.49219-1.1445-0.09375h-408.61c-5.4141 0-10.129 3.7344-11.363 9.0078l-40.836 175c-0.81641 3.4766 0 7.1172 2.2188 9.918 2.2148 2.7773 5.5742 4.4102 9.1445 4.4102zm420 0h-75.832c-3.5234 0-6.8594-1.5859-9.0781-4.3398l-113.42-140.42-113.43 140.42c-2.2148 2.7539-5.5547 4.3398-9.0781 4.3398h-75.832v221.67h35v-128.34c-3.3359 0-6.6484-1.4219-8.9609-4.1992-4.1289-4.9453-3.4531-12.297 1.4961-16.426l70-58.332c4.3164-3.6172 10.617-3.6172 14.934 0l70 58.332c4.9453 4.1289 5.6211 11.48 1.4922 16.426-2.3086 2.7773-5.625 4.1992-8.9609 4.1992v128.34h221.67zm-338.34 77.422v144.25h11.668v-128.34c0-6.4375 5.2266-11.664 11.668-11.664h46.668c6.4375 0 11.664 5.2266 11.664 11.664v128.34h11.668v-144.25c-18.527-15.449-46.668-38.898-46.668-38.898zm58.336 144.25v-116.67h-23.336v116.67zm93.332-70c0 6.4414 5.2266 11.668 11.668 11.668h46.668c6.4375 0 11.664-5.2266 11.664-11.668v-81.668c0-6.4414-5.2266-11.668-11.664-11.668h-46.668c-6.4414 0-11.668 5.2266-11.668 11.668zm151.64 11.668c3.1055 0 6.0664-1.2148 8.2617-3.4102 2.1914-2.1914 3.4297-5.1562 3.4297-8.2578v-81.668c0-6.4414-5.2266-11.668-11.668-11.668h-46.668c-6.4375 0-11.664 5.2266-11.664 11.668v81.551c0 6.4414 5.2031 11.668 11.641 11.668zm-128.31-23.336v-58.332h23.332v58.332zm116.66-0.023438-23.332-0.046875v-58.262h23.332zm-198.33-163.31c0 6.4375 5.2266 11.664 11.668 11.664h70c6.4375 0 11.664-5.2266 11.664-11.664v-46.668c0-6.4414-5.2266-11.668-11.664-11.668h-70c-6.4414 0-11.668 5.2266-11.668 11.668zm241.57-151.67h-389.81l-35.395 151.67h102.22l119-147.33c2.2148-2.7539 5.5547-4.3398 9.0781-4.3398 3.5234 0 6.8594 1.5859 9.0742 4.3398l119 147.33h102.23zm-218.24 140v-23.332h46.668v23.332z" fill-rule="evenodd"/>
 </g>
</svg>
