<?xml version="1.0" encoding="UTF-8" standalone="no"?>
<!-- Generator: Adobe Illustrator 18.1.1, SVG Export Plug-In . SVG Version: 6.00 Build 0)  -->

<svg
   version="1.1"
   id="Capa_1"
   x="0px"
   y="0px"
   viewBox="0 0 32 32"
   style="enable-background:new 0 0 32 32;"
   xml:space="preserve"
   sodipodi:docname="like_full.svg"
   inkscape:version="1.2 (dc2aedaf03, 2022-05-15)"
   xmlns:inkscape="http://www.inkscape.org/namespaces/inkscape"
   xmlns:sodipodi="http://sodipodi.sourceforge.net/DTD/sodipodi-0.dtd"
   xmlns="http://www.w3.org/2000/svg"
   xmlns:svg="http://www.w3.org/2000/svg"><defs
   id="defs42">
	

		
		
	</defs><sodipodi:namedview
   id="namedview40"
   pagecolor="#ffffff"
   bordercolor="#666666"
   borderopacity="1.0"
   inkscape:showpageshadow="2"
   inkscape:pageopacity="0.0"
   inkscape:pagecheckerboard="0"
   inkscape:deskcolor="#d1d1d1"
   showgrid="false"
   inkscape:zoom="25.4375"
   inkscape:cx="16"
   inkscape:cy="19.164619"
   inkscape:window-width="1920"
   inkscape:window-height="1001"
   inkscape:window-x="-9"
   inkscape:window-y="-9"
   inkscape:window-maximized="1"
   inkscape:current-layer="Capa_1" />
















<g
   id="g2310"><path
     style="fill:#3b58d8"
     d="M 29.164,10.472 C 27.914,10.144 24.975,10.148 20.676,10.034 20.879,9.096 20.926,8.25 20.926,6.748 20.926,3.16 18.312,0 16,0 14.367,0 13.021,1.335 13,2.977 12.978,4.991 12.355,8.469 9,10.233 8.754,10.363 8.05,10.71 7.947,10.755 L 8,10.8 C 7.475,10.347 6.747,10 6,10 H 3 c -1.654,0 -3,1.346 -3,3 v 16 c 0,1.654 1.346,3 3,3 h 3 c 1.19,0 2.186,-0.719 2.668,-1.727 0.012,0.004 0.033,0.01 0.047,0.012 0.066,0.018 0.144,0.037 0.239,0.062 0.018,0.005 0.027,0.007 0.046,0.012 0.576,0.143 1.685,0.408 4.055,0.953 0.508,0.116 3.192,0.688 5.972,0.688 h 5.467 c 1.666,0 2.867,-0.641 3.582,-1.928 0.01,-0.02 0.24,-0.469 0.428,-1.076 0.141,-0.457 0.193,-1.104 0.023,-1.76 1.074,-0.738 1.42,-1.854 1.645,-2.58 0.377,-1.191 0.264,-2.086 0.002,-2.727 0.604,-0.57 1.119,-1.439 1.336,-2.766 0.135,-0.822 -0.01,-1.668 -0.389,-2.372 0.566,-0.636 0.824,-1.436 0.854,-2.176 l 0.012,-0.209 C 31.994,14.275 32,14.194 32,13.906 32,12.643 31.125,11.032 29.164,10.472 Z M 7,29 c 0,0.553 -0.447,1 -1,1 H 3 C 2.447,30 2,29.553 2,29 V 13 c 0,-0.553 0.447,-1 1,-1 h 3 c 0.553,0 1,0.447 1,1 z M 29.977,14.535 C 29.957,15.029 29.75,16 28,16 c -1.5,0 -2,0 -2,0 -0.277,0 -0.5,0.224 -0.5,0.5 0,0.276 0.223,0.5 0.5,0.5 0,0 0.438,0 1.938,0 1.5,0 1.697,1.244 1.6,1.844 C 29.414,19.59 29.064,21 27.375,21 25.688,21 25,21 25,21 c -0.277,0 -0.5,0.223 -0.5,0.5 0,0.275 0.223,0.5 0.5,0.5 0,0 1.188,0 1.969,0 1.688,0 1.539,1.287 1.297,2.055 C 27.947,25.064 27.752,26 25.625,26 c -0.719,0 -1.631,0 -1.631,0 -0.277,0 -0.5,0.223 -0.5,0.5 0,0.275 0.223,0.5 0.5,0.5 0,0 0.693,0 1.568,0 1.094,0 1.145,1.035 1.031,1.406 -0.125,0.406 -0.273,0.707 -0.279,0.721 C 26.012,29.672 25.525,30 24.494,30 h -5.467 c -2.746,0 -5.47,-0.623 -5.54,-0.639 -4.154,-0.957 -4.373,-1.031 -4.634,-1.105 0,0 -0.846,-0.143 -0.846,-0.881 L 8,13.563 C 8,13.094 8.299,12.67 8.794,12.521 8.856,12.497 8.94,12.471 9,12.446 13.568,10.554 14.959,6.406 15,3 c 0.006,-0.479 0.375,-1 1,-1 1.057,0 2.926,2.122 2.926,4.748 0,2.371 -0.096,2.781 -0.926,5.252 10,0 9.93,0.144 10.812,0.375 1.094,0.313 1.188,1.219 1.188,1.531 0,0.343 -0.01,0.293 -0.023,0.629 z"
     id="path2" /><g
     id="g9">
</g><g
     id="g11">
</g><g
     id="g13">
</g><g
     id="g15">
</g><g
     id="g17">
</g><g
     id="g19">
</g><g
     id="g21">
</g><g
     id="g23">
</g><g
     id="g25">
</g><g
     id="g27">
</g><g
     id="g29">
</g><g
     id="g31">
</g><g
     id="g33">
</g><g
     id="g35">
</g><g
     id="g37">
</g><rect
     style="fill:#3b58d8;fill-opacity:1;stroke-width:0.860516"
     id="rect1440"
     width="3.970516"
     height="13.484029"
     x="13.916462"
     y="1.8083538" /><rect
     style="fill:#3b58d8;fill-opacity:1;stroke-width:1.15601"
     id="rect1442"
     width="7.587224"
     height="23.036856"
     x="12.501229"
     y="7.3513517" /><rect
     style="fill:#3b58d8;fill-opacity:1"
     id="rect1446"
     width="8.9238329"
     height="17.729731"
     x="7.5479116"
     y="11.990172" /><rect
     style="fill:#3b58d8;fill-opacity:1"
     id="rect1448"
     width="5.7788701"
     height="3.6953316"
     x="9.6314497"
     y="9.9852581" /><rect
     style="fill:#3b58d8;fill-opacity:1"
     id="rect1450"
     width="9.7493858"
     height="18.673218"
     x="17.415234"
     y="11.597052" /><rect
     style="fill:#3b58d8;fill-opacity:1"
     id="rect1452"
     width="4.6388206"
     height="14.584766"
     x="24.137592"
     y="11.479115" /><rect
     style="fill:#3b58d8;fill-opacity:1"
     id="rect1454"
     width="4.4422603"
     height="9.1597052"
     x="25.749386"
     y="11.7543" /><rect
     style="fill:#3b58d8;fill-opacity:1"
     id="rect2257"
     width="2.3980343"
     height="4.7174449"
     x="16.628992"
     y="3.144963" /></g></svg>
