<?xml version="1.0" encoding="UTF-8" standalone="no"?>
<svg
   id="svg2"
   viewBox="0 0 485 485"
   version="1.1"
   sodipodi:docname="logo.svg"
   width="485"
   height="485"
   inkscape:version="1.2 (dc2aedaf03, 2022-05-15)"
   xmlns:inkscape="http://www.inkscape.org/namespaces/inkscape"
   xmlns:sodipodi="http://sodipodi.sourceforge.net/DTD/sodipodi-0.dtd"
   xmlns="http://www.w3.org/2000/svg"
   xmlns:svg="http://www.w3.org/2000/svg"
   xmlns:rdf="http://www.w3.org/1999/02/22-rdf-syntax-ns#"
   xmlns:cc="http://creativecommons.org/ns#"
   xmlns:dc="http://purl.org/dc/elements/1.1/">
  <defs
     id="defs11" />
  <sodipodi:namedview
     id="namedview9"
     pagecolor="#ffffff"
     bordercolor="#666666"
     borderopacity="1.0"
     inkscape:showpageshadow="2"
     inkscape:pageopacity="0.0"
     inkscape:pagecheckerboard="0"
     inkscape:deskcolor="#d1d1d1"
     showgrid="false"
     inkscape:zoom="1.3344262"
     inkscape:cx="305"
     inkscape:cy="245.42383"
     inkscape:window-width="1920"
     inkscape:window-height="1001"
     inkscape:window-x="-9"
     inkscape:window-y="-9"
     inkscape:window-maximized="1"
     inkscape:current-layer="svg2" />
  <g
     id="layer5"
     fill="#ff6347"
     transform="matrix(0.99924933,0,0,1.0030463,-48.727558,-55.503316)">
    <path
       id="path6269"
       d="m 212.47,55.344 c -0.72235,-0.0046 -1.434,0.01567 -2.1562,0.03125 -6.6033,0.14241 -13.19,1.133 -19.688,3.0312 -51.979,15.186 -78.105,82.88 -58.344,151.19 5.5738,19.267 14.192,36.522 24.875,51.031 -4.908,-0.3203 -9.9114,-0.36355 -15,-0.0937 -53.704,2.8474 -95.479,38.636 -93.312,79.906 2.161,41.27 47.446,72.41 101.15,69.56 27.983,-1.4837 52.711,-11.897 69.688,-27.375 -9.4839,17.345 -14.599,39.065 -13.375,62.375 2.8335,53.969 38.432,95.959 79.5,93.781 41.068,-2.1774 72.052,-47.687 69.219,-101.66 -0.62115,-11.831 -2.8297,-23.097 -6.3125,-33.438 15.591,6.3978 33.015,10.496 51.562,11.594 70.664,4.1841 130.53,-36.447 133.72,-90.75 3.1839,-54.303 -51.524,-101.72 -122.19,-105.91 -34.501,-2.0428 -66.425,6.6141 -90.438,22.312 7.6316,-25.598 7.9281,-55.914 -0.875,-86.344 -17.021,-58.835 -62.523,-98.962 -108.03,-99.25 z" />
    <path
       id="path6279"
       d="m 444.6,131.81 c 3.16,2.39 5.4,12.4 5.4,12.4 L 314.37,251.83 Z" />
    <path
       id="path6281"
       d="m 383.26,85.575 c 3.1667,2.3955 9.9832,-1.2925 10.403,4.5439 l -77.775,148.34 z" />
  </g>
  <metadata
     id="metadata6">
    <rdf:RDF>
      <cc:Work>
        <dc:format>image/svg+xml</dc:format>
        <dc:type
           rdf:resource="http://purl.org/dc/dcmitype/StillImage" />
        <cc:license
           rdf:resource="http://creativecommons.org/publicdomain/zero/1.0/" />
        <dc:publisher>
          <cc:Agent
             rdf:about="http://openclipart.org/">
            <dc:title>Openclipart</dc:title>
          </cc:Agent>
        </dc:publisher>
        <dc:title>Eco green butterfly icon</dc:title>
        <dc:date>2013-08-22T20:44:53</dc:date>
        <dc:description />
        <dc:source>http://openclipart.org/detail/182130/eco-green-butterfly-by-dominiquechappard-182130</dc:source>
        <dc:creator>
          <cc:Agent>
            <dc:title>dominiquechappard</dc:title>
          </cc:Agent>
        </dc:creator>
        <dc:subject>
          <rdf:Bag>
            <rdf:li>butterfly</rdf:li>
            <rdf:li>ecology</rdf:li>
            <rdf:li>green</rdf:li>
          </rdf:Bag>
        </dc:subject>
      </cc:Work>
      <cc:License
         rdf:about="http://creativecommons.org/publicdomain/zero/1.0/">
        <cc:permits
           rdf:resource="http://creativecommons.org/ns#Reproduction" />
        <cc:permits
           rdf:resource="http://creativecommons.org/ns#Distribution" />
        <cc:permits
           rdf:resource="http://creativecommons.org/ns#DerivativeWorks" />
      </cc:License>
    </rdf:RDF>
  </metadata>
</svg>
